<svg id="audio" width="228" height="43" viewBox="0 0 228 43" fill="none" xmlns="http://www.w3.org/2000/svg">
<g clip-path="url(#clip0_169:178)">
<path d="M0.5 15.2656V27.9876" stroke="#D4D4D4" stroke-miterlimit="10"/>
<path d="M3.04492 12.7217V30.5327" stroke="#D4D4D4" stroke-miterlimit="10"/>
<path d="M6.2251 8.90527V34.3493" stroke="#D4D4D4" stroke-miterlimit="10"/>
<path d="M8.77002 6.99707V35.6211" stroke="#D4D4D4" stroke-miterlimit="10"/>
<path d="M11.314 1.27148V41.3455" stroke="#D4D4D4" stroke-miterlimit="10"/>
<path d="M14.4941 4.45312V38.1661" stroke="#D4D4D4" stroke-miterlimit="10"/>
<path d="M17.0391 8.90527V34.3493" stroke="#D4D4D4" stroke-miterlimit="10"/>
<path d="M19.583 12.0859V31.1689" stroke="#D4D4D4" stroke-miterlimit="10"/>
<path d="M22.7639 1.27148V41.3455" stroke="#D4D4D4" stroke-miterlimit="10"/>
<path d="M25.3081 6.36133V36.2583" stroke="#D4D4D4" stroke-miterlimit="10"/>
<path d="M27.8521 10.1768V33.0758" stroke="#D4D4D4" stroke-miterlimit="10"/>
<path d="M31.033 10.8125V32.4395" stroke="#D4D4D4" stroke-miterlimit="10"/>
<path d="M33.5769 13.3584V29.8964" stroke="#D4D4D4" stroke-miterlimit="10"/>
<path d="M36.1221 11.4492V31.8042" stroke="#D4D4D4" stroke-miterlimit="10"/>
<path d="M39.302 12.7217V30.5327" stroke="#D4D4D4" stroke-miterlimit="10"/>
<path d="M41.8469 12.7217V30.5327" stroke="#D4D4D4" stroke-miterlimit="10"/>
<path d="M44.3911 7.63281V34.9848" stroke="#D4D4D4" stroke-miterlimit="10"/>
<path d="M47.571 9.54102V33.713" stroke="#D4D4D4" stroke-miterlimit="10"/>
<path d="M50.116 3.81641V38.8014" stroke="#D4D4D4" stroke-miterlimit="10"/>
<path d="M52.6599 0.635742V41.9817" stroke="#D4D4D4" stroke-miterlimit="10"/>
<path d="M55.8411 4.45312V38.1661" stroke="#D4D4D4" stroke-miterlimit="10"/>
<path d="M58.385 1.27148V41.3455" stroke="#D4D4D4" stroke-miterlimit="10"/>
<path d="M61.5659 10.1768V33.0758" stroke="#D4D4D4" stroke-miterlimit="10"/>
<path d="M64.1101 13.9941V29.2601" stroke="#D4D4D4" stroke-miterlimit="10"/>
<path d="M66.6541 11.4492V31.8042" stroke="#D4D4D4" stroke-miterlimit="10"/>
<path d="M69.835 6.36133V36.2583" stroke="#D4D4D4" stroke-miterlimit="10"/>
<path d="M72.3789 0V42.618" stroke="#D4D4D4" stroke-miterlimit="10"/>
<path d="M74.9241 0V42.618" stroke="#D4D4D4" stroke-miterlimit="10"/>
<path d="M78.104 4.45312V38.1661" stroke="#D4D4D4" stroke-miterlimit="10"/>
<path d="M80.6479 8.90527V34.3493" stroke="#D4D4D4" stroke-miterlimit="10"/>
<path d="M83.1929 14.6299V28.6239" stroke="#D4D4D4" stroke-miterlimit="10"/>
<path d="M86.373 15.2656V27.9876" stroke="#D4D4D4" stroke-miterlimit="10"/>
<path d="M88.918 12.7217V30.5327" stroke="#D4D4D4" stroke-miterlimit="10"/>
<path d="M91.4619 8.90527V34.3493" stroke="#D4D4D4" stroke-miterlimit="10"/>
<path d="M94.6431 6.99707V35.6211" stroke="#D4D4D4" stroke-miterlimit="10"/>
<path d="M97.187 1.27148V41.3455" stroke="#D4D4D4" stroke-miterlimit="10"/>
<path d="M99.731 4.45312V38.1661" stroke="#D4D4D4" stroke-miterlimit="10"/>
<path d="M102.912 8.90527V34.3493" stroke="#D4D4D4" stroke-miterlimit="10"/>
<path d="M105.456 12.0859V31.1689" stroke="#D4D4D4" stroke-miterlimit="10"/>
<path d="M108.001 1.27148V41.3455" stroke="#D4D4D4" stroke-miterlimit="10"/>
<path d="M111.181 6.36133V36.2583" stroke="#D4D4D4" stroke-miterlimit="10"/>
<path d="M113.725 10.1768V33.0758" stroke="#D4D4D4" stroke-miterlimit="10"/>
<path d="M116.27 10.8125V32.4395" stroke="#D4D4D4" stroke-miterlimit="10"/>
<path d="M119.45 13.3584V29.8964" stroke="#D4D4D4" stroke-miterlimit="10"/>
<path d="M121.995 11.4492V31.8042" stroke="#D4D4D4" stroke-miterlimit="10"/>
<path d="M124.539 12.7217V30.5327" stroke="#D4D4D4" stroke-miterlimit="10"/>
<path d="M127.72 12.7217V30.5327" stroke="#D4D4D4" stroke-miterlimit="10"/>
<path d="M130.264 7.63281V34.9848" stroke="#D4D4D4" stroke-miterlimit="10"/>
<path d="M132.808 9.54102V33.713" stroke="#D4D4D4" stroke-miterlimit="10"/>
<path d="M135.989 3.81641V38.8014" stroke="#D4D4D4" stroke-miterlimit="10"/>
<path d="M138.533 0.635742V41.9817" stroke="#D4D4D4" stroke-miterlimit="10"/>
<path d="M141.078 4.45312V38.1661" stroke="#D4D4D4" stroke-miterlimit="10"/>
<path d="M144.258 1.27148V41.3455" stroke="#D4D4D4" stroke-miterlimit="10"/>
<path d="M146.802 10.1768V33.0758" stroke="#D4D4D4" stroke-miterlimit="10"/>
<path d="M149.347 13.9941V29.2601" stroke="#D4D4D4" stroke-miterlimit="10"/>
<path d="M152.527 11.4492V31.8042" stroke="#D4D4D4" stroke-miterlimit="10"/>
<path d="M155.072 6.36133V36.2583" stroke="#D4D4D4" stroke-miterlimit="10"/>
<path d="M157.616 0V42.618" stroke="#D4D4D4" stroke-miterlimit="10"/>
<path d="M160.797 0V42.618" stroke="#D4D4D4" stroke-miterlimit="10"/>
<path d="M163.341 4.45312V38.1661" stroke="#D4D4D4" stroke-miterlimit="10"/>
<path d="M165.885 8.90527V34.3493" stroke="#D4D4D4" stroke-miterlimit="10"/>
<path d="M169.066 14.6299V28.6239" stroke="#D4D4D4" stroke-miterlimit="10"/>
<path d="M171.61 15.2656V27.9876" stroke="#D4D4D4" stroke-miterlimit="10"/>
<path d="M174.791 12.7217V30.5327" stroke="#D4D4D4" stroke-miterlimit="10"/>
<path d="M177.335 8.90527V34.3493" stroke="#D4D4D4" stroke-miterlimit="10"/>
<path d="M179.879 6.99707V35.6211" stroke="#D4D4D4" stroke-miterlimit="10"/>
<path d="M183.06 1.27148V41.3455" stroke="#D4D4D4" stroke-miterlimit="10"/>
<path d="M185.604 4.45312V38.1661" stroke="#D4D4D4" stroke-miterlimit="10"/>
<path d="M188.149 8.90527V34.3493" stroke="#D4D4D4" stroke-miterlimit="10"/>
<path d="M191.329 12.0859V31.1689" stroke="#D4D4D4" stroke-miterlimit="10"/>
<path d="M193.874 1.27148V41.3455" stroke="#D4D4D4" stroke-miterlimit="10"/>
<path d="M196.418 6.36133V36.2583" stroke="#D4D4D4" stroke-miterlimit="10"/>
<path d="M199.598 10.1768V33.0758" stroke="#D4D4D4" stroke-miterlimit="10"/>
<path d="M202.143 10.8125V32.4395" stroke="#D4D4D4" stroke-miterlimit="10"/>
<path d="M204.687 13.3584V29.8964" stroke="#D4D4D4" stroke-miterlimit="10"/>
<path d="M207.868 11.4492V31.8042" stroke="#D4D4D4" stroke-miterlimit="10"/>
<path d="M210.412 12.7217V30.5327" stroke="#D4D4D4" stroke-miterlimit="10"/>
<path d="M212.956 12.7217V30.5327" stroke="#D4D4D4" stroke-miterlimit="10"/>
<path d="M216.137 7.63281V34.9848" stroke="#D4D4D4" stroke-miterlimit="10"/>
<path d="M218.681 3.17969V39.4367" stroke="#D4D4D4" stroke-miterlimit="10"/>
<path d="M221.226 3.81641V38.8014" stroke="#D4D4D4" stroke-miterlimit="10"/>
<path d="M224.406 7.63281V34.9848" stroke="#D4D4D4" stroke-miterlimit="10"/>
<path d="M226.951 15.9023V27.3523" stroke="#D4D4D4" stroke-miterlimit="10"/>
</g>
<defs>
<clipPath id="clip0_169:178">
<rect width="227.45" height="42.618" fill="white"/>
</clipPath>
</defs>
</svg>
