<svg xmlns="http://www.w3.org/2000/svg" xmlns:xlink="http://www.w3.org/1999/xlink" width="370" height="259" viewBox="0 0 370 259">
  <defs>
    <clipPath id="clip-path">
      <rect id="Rectangle_70" data-name="Rectangle 70" width="370" height="259" transform="translate(1070 3773.717)" fill="none"/>
    </clipPath>
  </defs>
  <g id="Group_228" data-name="Group 228" transform="translate(-1070 -3773.717)">
    <g id="Group_227" data-name="Group 227" clip-path="url(#clip-path)">
      <g id="Group_226" data-name="Group 226" opacity="0.2">
        <path id="Path_643" data-name="Path 643" d="M579.074,4292.705c-12.421-45.335-21.485-94.739-4.119-138.419,22.753-57.23,85.882-89.278,147.03-96.622s122.716,4.794,184.127,9.463,127.182.629,177.8-34.458c70.2-48.662,93.238-143.49,156.58-200.792,52.817-47.782,132.544-63.536,199.566-39.435" fill="none" stroke="#b3b3b3" stroke-miterlimit="10" stroke-width="1"/>
        <path id="Path_644" data-name="Path 644" d="M625.585,4292.705c-11.75-42.886-20.324-89.621-3.9-130.942,21.523-54.138,81.242-84.455,139.087-91.4s116.087,4.535,174.18,8.952,120.311.595,168.192-32.6c66.407-46.033,88.2-135.738,148.121-189.945,49.964-45.2,125.385-60.1,188.786-37.3" fill="none" stroke="#b3b3b3" stroke-miterlimit="10" stroke-width="1"/>
        <path id="Path_645" data-name="Path 645" d="M672.1,4292.705c-11.079-40.437-19.164-84.5-3.674-123.464,20.295-51.047,76.6-79.632,131.145-86.183s109.458,4.277,164.233,8.441,113.441.56,158.588-30.736c62.614-43.4,83.164-127.986,139.662-179.1,47.111-42.619,118.224-56.671,178.005-35.173" fill="none" stroke="#b3b3b3" stroke-miterlimit="10" stroke-width="1"/>
        <path id="Path_646" data-name="Path 646" d="M718.607,4292.705c-10.408-37.988-18-79.386-3.452-115.987,19.066-47.955,71.964-74.809,123.2-80.963s102.829,4.018,154.287,7.93,106.571.526,148.983-28.874c58.822-40.776,78.128-120.235,131.2-168.251,44.258-40.039,111.064-53.239,167.224-33.044" fill="none" stroke="#b3b3b3" stroke-miterlimit="10" stroke-width="1"/>
        <path id="Path_647" data-name="Path 647" d="M765.118,4292.705c-9.737-35.539-16.842-74.268-3.229-108.509,17.836-44.864,67.324-69.987,115.259-75.743s96.2,3.758,144.34,7.418,99.7.492,139.378-27.013c55.03-38.147,73.091-112.483,122.746-157.4,41.4-37.457,103.9-49.807,156.443-30.913" fill="none" stroke="#b3b3b3" stroke-miterlimit="10" stroke-width="1"/>
      </g>
    </g>
  </g>
</svg>
