<svg id="administration" xmlns="http://www.w3.org/2000/svg" width="105" height="82.736" viewBox="0 0 105 82.736">
  <path id="Path_636" data-name="Path 636" d="M241,3939.006H136.537a.173.173,0,0,1,0-.346H241a.173.173,0,0,1,0,.346Zm-101.916,6.645a3.141,3.141,0,0,1-.3-.51,1.222,1.222,0,0,1-.1-.5h-.438a1.49,1.49,0,0,0,.106.6,3.947,3.947,0,0,0,.332.588,4.075,4.075,0,0,1,.347.63,1.743,1.743,0,0,1,.113.668,1.386,1.386,0,0,1-.272.909,1.1,1.1,0,0,1-1.6-.039,1.929,1.929,0,0,1-.26-1.109v-3.947l-.437.1v3.88a2.037,2.037,0,0,0,.384,1.344,1.627,1.627,0,0,0,2.248.01,1.683,1.683,0,0,0,.392-1.153,2.013,2.013,0,0,0-.128-.773A4.045,4.045,0,0,0,139.083,3945.651Zm3.991.616c-.091-.13-.211-.286-.362-.467a4.6,4.6,0,0,1-.438-.6,1.1,1.1,0,0,1-.143-.558h-.438a1.414,1.414,0,0,0,.163.705,4.142,4.142,0,0,0,.479.661,3.931,3.931,0,0,1,.456.636,1.388,1.388,0,0,1,.155.674,1.066,1.066,0,0,1-.257.749.95.95,0,0,1-.739.28,1,1,0,0,1-.739-.268.973.973,0,0,1-.272-.722,1.861,1.861,0,0,1,.121-.676l-.377-.107a1.86,1.86,0,0,0-.181.79,1.392,1.392,0,0,0,.169.684,1.23,1.23,0,0,0,.5.487,1.6,1.6,0,0,0,.781.181,1.48,1.48,0,0,0,1.049-.38,1.319,1.319,0,0,0,.407-1.01,1.72,1.72,0,0,0-.1-.591A2.092,2.092,0,0,0,143.074,3946.267Zm3.726-1.138a1.38,1.38,0,0,0-1.086-.551,1.218,1.218,0,0,0-1.064.611,1.292,1.292,0,0,0-.166.656,1.717,1.717,0,0,0,.181.74l.392-.068a1.789,1.789,0,0,1-.128-.641,1.011,1.011,0,0,1,.215-.676.814.814,0,0,1,.638-.26,1.019,1.019,0,0,1,.562.158,1.8,1.8,0,0,1,.456.446v3a1.5,1.5,0,0,1-.249.928.891.891,0,0,1-.754.324.994.994,0,0,1-.747-.279,1.046,1.046,0,0,1-.272-.762,2.361,2.361,0,0,1,.144-.826l-.377-.11a2.22,2.22,0,0,0-.212.922,1.529,1.529,0,0,0,.17.72,1.262,1.262,0,0,0,.5.514,1.561,1.561,0,0,0,.8.191,1.351,1.351,0,0,0,1.06-.427,1.661,1.661,0,0,0,.381-1.15v-5.537l-.438-.068Zm4.179,1.138q-.135-.2-.362-.467a4.492,4.492,0,0,1-.437-.6,1.092,1.092,0,0,1-.144-.558H149.6a1.425,1.425,0,0,0,.162.705,4.206,4.206,0,0,0,.479.661,4.009,4.009,0,0,1,.457.636,1.4,1.4,0,0,1,.154.674,1.066,1.066,0,0,1-.256.749.952.952,0,0,1-.74.28,1,1,0,0,1-.739-.268.973.973,0,0,1-.271-.722,1.882,1.882,0,0,1,.12-.676l-.377-.107a1.86,1.86,0,0,0-.181.79,1.392,1.392,0,0,0,.17.684,1.234,1.234,0,0,0,.5.487,1.608,1.608,0,0,0,.781.181,1.478,1.478,0,0,0,1.049-.38,1.319,1.319,0,0,0,.407-1.01,1.7,1.7,0,0,0-.1-.591A2.05,2.05,0,0,0,150.979,3946.267Zm4.708-1.629a1.035,1.035,0,0,0-.7.23,1.05,1.05,0,0,0-.336.66,1.09,1.09,0,0,0-.317-.664.931.931,0,0,0-.648-.226,1.026,1.026,0,0,0-.566.155,1.124,1.124,0,0,0-.4.539,1.972,1.972,0,0,1,.415-.936,1.715,1.715,0,0,1,.739-.487,5.629,5.629,0,0,1,.86-.214c.262-.054.473-.1.634-.151a2.146,2.146,0,0,0,.46-.195l-.189-.317a1.594,1.594,0,0,1-.407.175q-.227.064-.626.153a5,5,0,0,0-.83.209,1.894,1.894,0,0,0-1.139.942,4.135,4.135,0,0,0-.324,1.8,6,6,0,0,0,.117,1.244,5.58,5.58,0,0,0,.32,1.028h.43a6.663,6.663,0,0,1-.32-1.089,5.549,5.549,0,0,1-.1-1.081q0-1.421.92-1.421.755,0,.754.976v1.377l.423-.053v-1.309a1.116,1.116,0,0,1,.211-.749.733.733,0,0,1,.581-.242.8.8,0,0,1,.637.3,1.588,1.588,0,0,1,.253,1.013,5.871,5.871,0,0,1-.106,1.157,6.853,6.853,0,0,1-.332,1.119h.438a6.3,6.3,0,0,0,.324-1.046,5.7,5.7,0,0,0,.121-1.233,1.833,1.833,0,0,0-.37-1.248A1.185,1.185,0,0,0,155.687,3944.638Zm7.068.383a2.3,2.3,0,0,1,.362,1.4,4.787,4.787,0,0,1-.125,1.132,7.663,7.663,0,0,1-.335,1.034h-.438a8.433,8.433,0,0,0,.34-1.107,4.876,4.876,0,0,0,.113-1.061,2.063,2.063,0,0,0-.253-1.156.847.847,0,0,0-.743-.365,1.221,1.221,0,0,0-.89.364,2.74,2.74,0,0,1,.264,1.287,2.487,2.487,0,0,1-.4,1.5,1.3,1.3,0,0,1-1.113.54,1.313,1.313,0,0,1-1.124-.531,2.992,2.992,0,0,1,.008-2.975,1.443,1.443,0,0,1,2.18-.078,1.5,1.5,0,0,1,1.1-.46A1.235,1.235,0,0,1,162.755,3945.021Zm-2.158,1.529a2.339,2.339,0,0,0-.264-1.241.869.869,0,0,0-.784-.414.887.887,0,0,0-.789.421,2.308,2.308,0,0,0-.275,1.25,2.336,2.336,0,0,0,.268,1.242.945.945,0,0,0,1.573,0A2.349,2.349,0,0,0,160.6,3946.55Zm3.681,1.392a1.959,1.959,0,0,0-.2.838,1.339,1.339,0,0,0,.4,1,1.522,1.522,0,0,0,1.113.389,1.481,1.481,0,0,0,1.15-.458,1.714,1.714,0,0,0,.419-1.2,1.515,1.515,0,0,0-.336-1.05,1.325,1.325,0,0,0-.818-.442,1.342,1.342,0,0,0,.709-.377,1.077,1.077,0,0,0,.279-.785,1.294,1.294,0,0,0-.174-.671,1.2,1.2,0,0,0-.5-.46,1.629,1.629,0,0,0-.754-.166,1.538,1.538,0,0,0-1.026.332,1.085,1.085,0,0,0-.392.868,1.484,1.484,0,0,0,.143.626l.392-.083a1.5,1.5,0,0,1-.09-.513.824.824,0,0,1,.253-.63,1.012,1.012,0,0,1,.72-.238.945.945,0,0,1,.728.264.983.983,0,0,1,.245.7.921.921,0,0,1-.283.731,1.016,1.016,0,0,1-.7.249h-.249l-.03.37h.294a1.051,1.051,0,0,1,.826.335,1.32,1.32,0,0,1,.3.907,1.539,1.539,0,0,1-.279.972,1,1,0,0,1-.83.355,1.065,1.065,0,0,1-.781-.279,1.017,1.017,0,0,1-.283-.758,2.152,2.152,0,0,1,.121-.709Zm6.691.649v-2.527a1.5,1.5,0,0,0-.381-1.094,1.369,1.369,0,0,0-1.029-.392,1.43,1.43,0,0,0-1,.347,1.17,1.17,0,0,0-.385.913,1.729,1.729,0,0,0,.181.747l.393-.1a1.75,1.75,0,0,1-.129-.649.9.9,0,0,1,.238-.645.91.91,0,0,1,.7-.253.883.883,0,0,1,.735.3,1.348,1.348,0,0,1,.238.856v2.452a1.489,1.489,0,0,1-.253.924.9.9,0,0,1-.758.328,1,1,0,0,1-.754-.279,1.042,1.042,0,0,1-.272-.762,2.384,2.384,0,0,1,.143-.826l-.377-.11a2.218,2.218,0,0,0-.211.922,1.529,1.529,0,0,0,.17.72,1.257,1.257,0,0,0,.5.514,1.585,1.585,0,0,0,.8.191,1.356,1.356,0,0,0,1.067-.427A1.661,1.661,0,0,0,170.969,3948.591Zm7.408-3.619a1.171,1.171,0,0,0-.928-.432,1,1,0,0,0-.675.23.973.973,0,0,0-.321.638.918.918,0,0,0-1-.868.966.966,0,0,0-.668.226,1.022,1.022,0,0,0-.313.642,1.041,1.041,0,0,0-.321-.645.98.98,0,0,0-.675-.223,1.118,1.118,0,0,0-.924.462,2.181,2.181,0,0,0-.358,1.355,2.474,2.474,0,0,0,.566,1.742,3.051,3.051,0,0,0,1.591.854,2.5,2.5,0,0,0-1.252.242l.136.392a2.343,2.343,0,0,1,1.244-.355,3.029,3.029,0,0,1,1.136.219,2.508,2.508,0,0,1,.962.694l.286-.241a2.359,2.359,0,0,0-.807-.642,6.216,6.216,0,0,0-1.214-.444,4.881,4.881,0,0,1-1.185-.48,2.073,2.073,0,0,1-.75-.758,2.359,2.359,0,0,1-.276-1.2,2.089,2.089,0,0,1,.23-1.083.726.726,0,0,1,.653-.373.662.662,0,0,1,.539.241,1.133,1.133,0,0,1,.2.732v1.448l.43-.053v-1.4a1.088,1.088,0,0,1,.211-.732.714.714,0,0,1,.566-.241.7.7,0,0,1,.562.241,1.1,1.1,0,0,1,.207.732v1.448l.423-.053v-1.4a1.077,1.077,0,0,1,.215-.728.7.7,0,0,1,.547-.245.789.789,0,0,1,.637.309,1.659,1.659,0,0,1,.253,1.041,4.959,4.959,0,0,1-.294,1.727l.385.1a4.467,4.467,0,0,0,.347-1.84A1.939,1.939,0,0,0,178.377,3944.972Zm5.382.261a1.958,1.958,0,0,1,.253,1.142,5.318,5.318,0,0,1-.11,1.1,7.968,7.968,0,0,1-.328,1.112h.438a6.719,6.719,0,0,0,.324-1.038,5.313,5.313,0,0,0,.121-1.173,2.15,2.15,0,0,0-.37-1.386,1.176,1.176,0,0,0-.95-.447,1.036,1.036,0,0,0-.687.227.963.963,0,0,0-.324.645,1.036,1.036,0,0,0-.328-.648,1.049,1.049,0,0,0-.706-.224,1.169,1.169,0,0,0-.935.44,2.138,2.138,0,0,0-.37,1.393,5.664,5.664,0,0,0,.438,2.211h.43a6.765,6.765,0,0,1-.321-1.1,5.83,5.83,0,0,1-.1-1.116,1.989,1.989,0,0,1,.246-1.119.764.764,0,0,1,.659-.353.729.729,0,0,1,.567.224,1.142,1.142,0,0,1,.2.766v1.461l.422-.053v-1.4a1.144,1.144,0,0,1,.208-.753.707.707,0,0,1,.57-.244A.779.779,0,0,1,183.759,3945.233Zm4.56,3.033a1.683,1.683,0,0,0,.392-1.153,2.032,2.032,0,0,0-.128-.773,4.115,4.115,0,0,0-.385-.689,3.069,3.069,0,0,1-.3-.51,1.222,1.222,0,0,1-.1-.5h-.438a1.49,1.49,0,0,0,.106.6,3.861,3.861,0,0,0,.332.588,4.159,4.159,0,0,1,.347.63,1.743,1.743,0,0,1,.113.668,1.386,1.386,0,0,1-.272.909,1.1,1.1,0,0,1-1.6-.039,1.929,1.929,0,0,1-.26-1.109v-3.947l-.438.1v3.88a2.037,2.037,0,0,0,.385,1.344,1.627,1.627,0,0,0,2.248.01Zm3.591-1.772a1.914,1.914,0,0,0-.189.813,1.357,1.357,0,0,0,.4,1.014,1.525,1.525,0,0,0,1.116.391,1.432,1.432,0,0,0,1.121-.457,1.76,1.76,0,0,0,.41-1.224,1.521,1.521,0,0,0-.312-1.008,1.131,1.131,0,0,0-.781-.419,1.328,1.328,0,0,0,.667-.31.815.815,0,0,0,.261-.641.864.864,0,0,0-.121-.46,1.12,1.12,0,0,0-.29-.32,4.7,4.7,0,0,0-.449-.283,3.043,3.043,0,0,1-.457-.3.469.469,0,0,1-.169-.313l-.43.053a.657.657,0,0,0,.2.452,2.615,2.615,0,0,0,.543.355,2.688,2.688,0,0,1,.547.369.613.613,0,0,1,.185.468.66.66,0,0,1-.252.547,1.037,1.037,0,0,1-.661.2h-.482l-.031.362h.423a1.088,1.088,0,0,1,.849.321,1.3,1.3,0,0,1,.29.9,1.608,1.608,0,0,1-.264.986.938.938,0,0,1-.8.349,1.083,1.083,0,0,1-.792-.28,1.016,1.016,0,0,1-.286-.763,1.984,1.984,0,0,1,.128-.7Zm4.446,1a5.628,5.628,0,0,1-.1-1.081q0-1.421.92-1.421.754,0,.754.976v1.377l.423-.053v-1.309a1.116,1.116,0,0,1,.211-.749.731.731,0,0,1,.581-.242.8.8,0,0,1,.637.3,1.588,1.588,0,0,1,.253,1.013,5.871,5.871,0,0,1-.106,1.157,6.853,6.853,0,0,1-.332,1.119h.438a6.3,6.3,0,0,0,.324-1.046,5.7,5.7,0,0,0,.121-1.233,1.833,1.833,0,0,0-.37-1.248,1.185,1.185,0,0,0-.928-.419,1.034,1.034,0,0,0-.7.23,1.05,1.05,0,0,0-.336.66,1.09,1.09,0,0,0-.317-.664.931.931,0,0,0-.648-.226,1.026,1.026,0,0,0-.566.155,1.124,1.124,0,0,0-.4.539,1.962,1.962,0,0,1,.415-.936,1.715,1.715,0,0,1,.739-.487,5.629,5.629,0,0,1,.86-.214c.261-.054.473-.1.634-.151a2.146,2.146,0,0,0,.46-.195l-.189-.317a1.594,1.594,0,0,1-.407.175q-.227.064-.626.153a5,5,0,0,0-.83.209,1.894,1.894,0,0,0-1.139.942,4.135,4.135,0,0,0-.324,1.8,5.931,5.931,0,0,0,.117,1.244,5.581,5.581,0,0,0,.32,1.028h.43A6.773,6.773,0,0,1,196.356,3947.5Zm7.627,2.246a1.661,1.661,0,0,0,.381-1.15v-2.527a1.5,1.5,0,0,0-.381-1.094,1.371,1.371,0,0,0-1.03-.392,1.434,1.434,0,0,0-1,.347,1.173,1.173,0,0,0-.384.913,1.715,1.715,0,0,0,.181.747l.392-.1a1.749,1.749,0,0,1-.128-.649.848.848,0,0,1,.935-.9.885.885,0,0,1,.736.3,1.348,1.348,0,0,1,.237.856v2.452a1.489,1.489,0,0,1-.252.924.9.9,0,0,1-.759.328,1,1,0,0,1-.754-.279,1.046,1.046,0,0,1-.272-.762,2.361,2.361,0,0,1,.144-.826l-.377-.11a2.219,2.219,0,0,0-.212.922,1.529,1.529,0,0,0,.17.72,1.253,1.253,0,0,0,.5.514,1.581,1.581,0,0,0,.8.191A1.359,1.359,0,0,0,203.983,3949.741Zm1.731-3.078a2.074,2.074,0,0,1,.317-1.144,2.306,2.306,0,0,1-.728-.59,1.23,1.23,0,0,1-.245-.77,1.253,1.253,0,0,1,.158-.624,1.141,1.141,0,0,1,.449-.441,1.373,1.373,0,0,1,.675-.16,1.425,1.425,0,0,1,.641.137,1.055,1.055,0,0,1,.43.375.94.94,0,0,1,.151.52,1.175,1.175,0,0,1-.241.725,1.222,1.222,0,0,1,.158-.015,1.34,1.34,0,0,1,.777.239,1.581,1.581,0,0,1,.543.676,2.429,2.429,0,0,1,.2,1,2.237,2.237,0,0,1-.437,1.446,1.629,1.629,0,0,1-2.41.018A2.115,2.115,0,0,1,205.714,3946.663Zm1.252-1.58-.181.164a1.794,1.794,0,0,0-.46.619,2,2,0,0,0-.143.79,1.924,1.924,0,0,0,.3,1.165,1.11,1.11,0,0,0,1.728-.011,2.035,2.035,0,0,0,.305-1.207,1.958,1.958,0,0,0-.305-1.168,1.015,1.015,0,0,0-.872-.42A1,1,0,0,0,206.966,3945.083Zm-.739.182a2.632,2.632,0,0,1,.294-.293,2.887,2.887,0,0,0,.472-.509.879.879,0,0,0,.132-.493.623.623,0,0,0-.215-.5.851.851,0,0,0-.57-.183.827.827,0,0,0-.618.236.865.865,0,0,0-.234.64,1.062,1.062,0,0,0,.192.64A1.619,1.619,0,0,0,206.227,3945.265Zm4.217,1.128a1.841,1.841,0,0,1,.286-1.114.964.964,0,0,1,.823-.384.944.944,0,0,1,.807.376,1.875,1.875,0,0,1,.279,1.122,5.122,5.122,0,0,1-.117,1.1,7.184,7.184,0,0,1-.336,1.088h.43a7.025,7.025,0,0,0,.34-1.034,4.867,4.867,0,0,0,.128-1.147,2.137,2.137,0,0,0-.4-1.367,1.371,1.371,0,0,0-1.135-.5,1.387,1.387,0,0,0-1.147.507A2.1,2.1,0,0,0,210,3946.4a4.976,4.976,0,0,0,.124,1.132,6.87,6.87,0,0,0,.336,1.049h.437A6.247,6.247,0,0,1,210.444,3946.393Zm8.411-1.327a2.5,2.5,0,0,1,.392,1.511,2.437,2.437,0,0,1-.392,1.48,1.444,1.444,0,0,1-2.233,0,2.4,2.4,0,0,1-.392-1.463,2.817,2.817,0,0,1,.256-1.29,1.2,1.2,0,0,0-.875-.377.909.909,0,0,0-.751.373,2.011,2.011,0,0,0-.29,1.219,2.261,2.261,0,0,0,.441,1.474,2.875,2.875,0,0,0,1.287.846,4.6,4.6,0,0,1,.916.458,2.129,2.129,0,0,1,.63.665l-.34.208a1.893,1.893,0,0,0-.626-.657,1.584,1.584,0,0,0-.875-.253,2.654,2.654,0,0,0-1.176.288l-.129-.4a2.736,2.736,0,0,1,.966-.166c.09,0,.161,0,.211.007a2.828,2.828,0,0,1-1.3-.886,2.617,2.617,0,0,1-.453-1.648,2.567,2.567,0,0,1,.192-1.057,1.454,1.454,0,0,1,.517-.639,1.3,1.3,0,0,1,.732-.213,1.482,1.482,0,0,1,.584.121,1.563,1.563,0,0,1,.509.354,1.456,1.456,0,0,1,2.2.051Zm-.068,1.519q0-1.66-1.049-1.66t-1.048,1.667a2.23,2.23,0,0,0,.268,1.211.946.946,0,0,0,1.561,0A2.254,2.254,0,0,0,218.787,3946.585Zm2.934-2.007a1.434,1.434,0,0,0-1,.347,1.173,1.173,0,0,0-.384.913,1.715,1.715,0,0,0,.181.747l.392-.1a1.749,1.749,0,0,1-.128-.649.848.848,0,0,1,.935-.9.885.885,0,0,1,.736.3,1.348,1.348,0,0,1,.237.856v2.452a1.489,1.489,0,0,1-.252.924.9.9,0,0,1-.759.328,1,1,0,0,1-.754-.279,1.046,1.046,0,0,1-.271-.762,2.361,2.361,0,0,1,.143-.826l-.377-.11a2.22,2.22,0,0,0-.212.922,1.529,1.529,0,0,0,.17.72,1.26,1.26,0,0,0,.5.514,1.581,1.581,0,0,0,.8.191,1.36,1.36,0,0,0,1.068-.427,1.661,1.661,0,0,0,.381-1.15v-2.527a1.5,1.5,0,0,0-.381-1.094A1.371,1.371,0,0,0,221.721,3944.578Zm5.379.516a2.618,2.618,0,0,1,.377,1.494,2.575,2.575,0,0,1-.415,1.573,1.361,1.361,0,0,1-1.154.551,1.342,1.342,0,0,1-1.124-.481,2.282,2.282,0,0,1-.385-1.412v-2.809a1.061,1.061,0,0,1,.29-.79,1.085,1.085,0,0,1,.8-.286.96.96,0,0,1,.336.063,1.5,1.5,0,0,0,.313.087,2.565,2.565,0,0,0,.445.053,1.6,1.6,0,0,0,.551-.1l.06.317a4.2,4.2,0,0,1-.611.045,2.957,2.957,0,0,1-.528-.053l-.207-.03a2.419,2.419,0,0,0-.336-.023.637.637,0,0,0-.5.192.811.811,0,0,0-.169.553v1.088a1.94,1.94,0,0,1,.528-.426,1.343,1.343,0,0,1,.648-.155A1.237,1.237,0,0,1,227.1,3945.094Zm-.1,1.493q0-1.692-1.048-1.692a1.157,1.157,0,0,0-.618.166,1.755,1.755,0,0,0-.5.475v1.221a2.183,2.183,0,0,0,.264,1.21,1.016,1.016,0,0,0,1.629-.039A2.57,2.57,0,0,0,227,3946.587Zm5.481-1.18a3.359,3.359,0,0,1,.5,1.985,3.893,3.893,0,0,1-.265,1.522,1.914,1.914,0,0,1-1.87,1.254,1.918,1.918,0,0,1-1.566-.706,3.194,3.194,0,0,1-.577-2.063,3.341,3.341,0,0,1,.506-1.973,1.871,1.871,0,0,1,1.425-.788c-.01-.189-.015-.474-.015-.852h.438c0,.378-.008.663-.023.852A1.873,1.873,0,0,1,232.482,3945.407Zm.034,1.988a3.339,3.339,0,0,0-.374-1.751,1.41,1.41,0,0,0-1.112-.674,2.961,2.961,0,0,1,.03.437v1.894l-.438.045v-1.939a2.959,2.959,0,0,1,.023-.429,1.4,1.4,0,0,0-1.094.682,3.323,3.323,0,0,0-.377,1.743,3.014,3.014,0,0,0,.445,1.826,1.462,1.462,0,0,0,1.23.584,1.443,1.443,0,0,0,1.233-.587A3.1,3.1,0,0,0,232.516,3947.4Zm3.062-2.855a1.385,1.385,0,0,0-1.146.507,2.1,2.1,0,0,0-.408,1.356,4.976,4.976,0,0,0,.125,1.132,6.867,6.867,0,0,0,.335,1.049h.438a6.228,6.228,0,0,1-.453-2.191,1.841,1.841,0,0,1,.287-1.114.963.963,0,0,1,.822-.384.942.942,0,0,1,.807.376,1.875,1.875,0,0,1,.279,1.122,5.186,5.186,0,0,1-.116,1.1,7.184,7.184,0,0,1-.336,1.088h.43a7.022,7.022,0,0,0,.339-1.034,4.814,4.814,0,0,0,.129-1.147,2.137,2.137,0,0,0-.4-1.367A1.373,1.373,0,0,0,235.578,3944.54Zm5.658,1.8a4.115,4.115,0,0,0-.385-.689,3.069,3.069,0,0,1-.3-.51,1.222,1.222,0,0,1-.1-.5h-.437a1.509,1.509,0,0,0,.1.6,4.04,4.04,0,0,0,.332.588,3.991,3.991,0,0,1,.347.63,1.725,1.725,0,0,1,.113.668,1.386,1.386,0,0,1-.271.909.95.95,0,0,1-.777.328.941.941,0,0,1-.826-.367,1.929,1.929,0,0,1-.26-1.109v-3.947l-.438.1v3.88a2.037,2.037,0,0,0,.385,1.344,1.627,1.627,0,0,0,2.248.01,1.683,1.683,0,0,0,.392-1.153A2.032,2.032,0,0,0,241.236,3946.34Zm-78.746,8.071c-.09-.13-.211-.286-.361-.467a4.425,4.425,0,0,1-.438-.6,1.091,1.091,0,0,1-.143-.558h-.438a1.425,1.425,0,0,0,.162.705,4.228,4.228,0,0,0,.479.661,4.007,4.007,0,0,1,.457.636,1.4,1.4,0,0,1,.154.674,1.066,1.066,0,0,1-.256.749.952.952,0,0,1-.74.28,1.006,1.006,0,0,1-.739-.268.973.973,0,0,1-.271-.722,1.882,1.882,0,0,1,.12-.676l-.377-.107a1.875,1.875,0,0,0-.181.79,1.394,1.394,0,0,0,.17.684,1.23,1.23,0,0,0,.5.487,1.6,1.6,0,0,0,.78.181,1.478,1.478,0,0,0,1.049-.38,1.315,1.315,0,0,0,.407-1.01,1.7,1.7,0,0,0-.1-.591A2.057,2.057,0,0,0,162.49,3954.411Zm6.065-1.2a2.493,2.493,0,0,1,.392,1.511,2.43,2.43,0,0,1-.392,1.48,1.444,1.444,0,0,1-2.233,0,2.408,2.408,0,0,1-.392-1.463,2.816,2.816,0,0,1,.257-1.29,1.2,1.2,0,0,0-.876-.377.907.907,0,0,0-.75.373,2,2,0,0,0-.29,1.219,2.262,2.262,0,0,0,.441,1.474,2.877,2.877,0,0,0,1.286.846,4.6,4.6,0,0,1,.917.458,2.124,2.124,0,0,1,.629.665l-.339.208a1.9,1.9,0,0,0-.626-.657,1.587,1.587,0,0,0-.875-.253,2.655,2.655,0,0,0-1.177.288l-.128-.4a2.732,2.732,0,0,1,.965-.166c.091,0,.161,0,.212.007a2.833,2.833,0,0,1-1.3-.886,2.618,2.618,0,0,1-.452-1.648,2.569,2.569,0,0,1,.192-1.057,1.448,1.448,0,0,1,.517-.639,1.3,1.3,0,0,1,.731-.213,1.491,1.491,0,0,1,.585.121,1.58,1.58,0,0,1,.509.354,1.455,1.455,0,0,1,2.195.051Zm-.068,1.519q0-1.66-1.048-1.66t-1.049,1.667a2.238,2.238,0,0,0,.268,1.211.948.948,0,0,0,1.562,0A2.255,2.255,0,0,0,168.487,3954.729Zm4.191-3.274a1.4,1.4,0,0,1,.388,1.05v2.427a2.239,2.239,0,0,1-.4,1.431,1.353,1.353,0,0,1-1.12.493,1.374,1.374,0,0,1-1.158-.525,2.438,2.438,0,0,1-.4-1.508,2.97,2.97,0,0,1,.169-1.032,1.65,1.65,0,0,1,.509-.734,1.27,1.27,0,0,1,.823-.275,1.407,1.407,0,0,1,1.139.574v-.814a1.247,1.247,0,0,0-.242-.823.983.983,0,0,0-.792-.287,1.191,1.191,0,0,0-.735.2.629.629,0,0,0-.26.53,1.086,1.086,0,0,0,.007.14l-.415.06a.806.806,0,0,1-.023-.191.941.941,0,0,1,.4-.8,1.694,1.694,0,0,1,1.03-.293A1.492,1.492,0,0,1,172.678,3951.455Zm-.049,2.319a1.284,1.284,0,0,0-1.079-.637.9.9,0,0,0-.815.445,2.325,2.325,0,0,0-.279,1.237,2.281,2.281,0,0,0,.276,1.256,1.023,1.023,0,0,0,1.625.019,2.12,2.12,0,0,0,.272-1.2Zm3.221-1.09a1.387,1.387,0,0,0-1.147.507,2.1,2.1,0,0,0-.407,1.356,4.977,4.977,0,0,0,.124,1.132,6.882,6.882,0,0,0,.336,1.049h.438a6.229,6.229,0,0,1-.453-2.191,1.841,1.841,0,0,1,.286-1.114.964.964,0,0,1,.823-.384.942.942,0,0,1,.807.376,1.875,1.875,0,0,1,.279,1.122,5.12,5.12,0,0,1-.117,1.1,7.179,7.179,0,0,1-.336,1.088h.43a7.034,7.034,0,0,0,.34-1.034,4.868,4.868,0,0,0,.128-1.147,2.137,2.137,0,0,0-.4-1.367A1.371,1.371,0,0,0,175.85,3952.684Zm5.461.554a2.61,2.61,0,0,1,.377,1.494,2.569,2.569,0,0,1-.415,1.573,1.36,1.36,0,0,1-1.154.551,1.343,1.343,0,0,1-1.124-.481,2.289,2.289,0,0,1-.384-1.412v-2.809a1.057,1.057,0,0,1,.29-.79,1.085,1.085,0,0,1,.8-.286.968.968,0,0,1,.336.063,1.589,1.589,0,0,0,.312.087,2.575,2.575,0,0,0,.446.053,1.593,1.593,0,0,0,.55-.1l.061.317a4.164,4.164,0,0,1-.611.045,2.956,2.956,0,0,1-.528-.053l-.208-.03a2.414,2.414,0,0,0-.335-.023.634.634,0,0,0-.5.192.811.811,0,0,0-.17.553v1.088a1.939,1.939,0,0,1,.528-.426,1.347,1.347,0,0,1,.649-.155A1.233,1.233,0,0,1,181.311,3953.238Zm-.1,1.493q0-1.692-1.048-1.692a1.158,1.158,0,0,0-.619.166,1.778,1.778,0,0,0-.5.475v1.221a2.192,2.192,0,0,0,.264,1.21,1.017,1.017,0,0,0,1.63-.039A2.57,2.57,0,0,0,181.213,3954.731Zm3.259-2.047a1.389,1.389,0,0,0-1.147.507,2.11,2.11,0,0,0-.407,1.356,4.976,4.976,0,0,0,.124,1.132,6.878,6.878,0,0,0,.336,1.049h.438a6.229,6.229,0,0,1-.453-2.191,1.834,1.834,0,0,1,.287-1.114.963.963,0,0,1,.822-.384.942.942,0,0,1,.807.376,1.875,1.875,0,0,1,.279,1.122,5.12,5.12,0,0,1-.117,1.1,7.175,7.175,0,0,1-.336,1.088h.431a7.151,7.151,0,0,0,.339-1.034,4.867,4.867,0,0,0,.128-1.147,2.137,2.137,0,0,0-.4-1.367A1.369,1.369,0,0,0,184.472,3952.684Zm5.273,1.111a3.084,3.084,0,0,1-.3-.51,1.236,1.236,0,0,1-.1-.5h-.438a1.49,1.49,0,0,0,.106.6,3.947,3.947,0,0,0,.332.588,3.99,3.99,0,0,1,.347.63,1.742,1.742,0,0,1,.113.668,1.387,1.387,0,0,1-.271.909,1.1,1.1,0,0,1-1.6-.039,1.93,1.93,0,0,1-.26-1.109v-3.947l-.437.1v3.88a2.031,2.031,0,0,0,.385,1.344,1.625,1.625,0,0,0,2.247.01,1.677,1.677,0,0,0,.393-1.153,2.014,2.014,0,0,0-.129-.773A4.04,4.04,0,0,0,189.745,3953.795Zm5.292-.244a3.358,3.358,0,0,1,.5,1.985,3.9,3.9,0,0,1-.264,1.522,2.038,2.038,0,0,1-.743.939,2.011,2.011,0,0,1-1.127.315,1.917,1.917,0,0,1-1.566-.706,3.188,3.188,0,0,1-.577-2.063,3.334,3.334,0,0,1,.506-1.973,1.87,1.87,0,0,1,1.425-.788c-.01-.189-.015-.474-.015-.852h.438c0,.378-.008.663-.023.852A1.872,1.872,0,0,1,195.037,3953.551Zm.033,1.988a3.34,3.34,0,0,0-.373-1.751,1.41,1.41,0,0,0-1.113-.674,2.955,2.955,0,0,1,.031.437v1.894l-.438.045v-1.939a2.957,2.957,0,0,1,.023-.429,1.394,1.394,0,0,0-1.094.682,3.314,3.314,0,0,0-.377,1.743,3.014,3.014,0,0,0,.445,1.826,1.46,1.46,0,0,0,1.23.584,1.444,1.444,0,0,0,1.233-.587A3.1,3.1,0,0,0,195.07,3955.539Zm4.881-2.757a1.035,1.035,0,0,0-.7.23,1.054,1.054,0,0,0-.335.66,1.1,1.1,0,0,0-.317-.664.932.932,0,0,0-.649-.226,1.028,1.028,0,0,0-.566.155,1.124,1.124,0,0,0-.4.539,1.972,1.972,0,0,1,.415-.936,1.718,1.718,0,0,1,.74-.487,5.6,5.6,0,0,1,.86-.214c.261-.054.472-.105.633-.151a2.134,2.134,0,0,0,.46-.2l-.188-.317a1.6,1.6,0,0,1-.408.175c-.151.043-.359.094-.626.153a5.005,5.005,0,0,0-.829.209,1.892,1.892,0,0,0-1.139.942,4.119,4.119,0,0,0-.325,1.8,6,6,0,0,0,.117,1.244,5.588,5.588,0,0,0,.321,1.028h.43a6.767,6.767,0,0,1-.321-1.089,5.545,5.545,0,0,1-.1-1.081q0-1.421.92-1.421.755,0,.755.976v1.377l.422-.053v-1.309a1.111,1.111,0,0,1,.212-.749.73.73,0,0,1,.58-.242.8.8,0,0,1,.638.3,1.6,1.6,0,0,1,.252,1.013,5.947,5.947,0,0,1-.1,1.157,6.957,6.957,0,0,1-.332,1.119h.437a6.4,6.4,0,0,0,.325-1.046,5.762,5.762,0,0,0,.121-1.233,1.839,1.839,0,0,0-.37-1.248A1.188,1.188,0,0,0,199.951,3952.782Zm4.813,1.629q-.137-.195-.362-.467a4.513,4.513,0,0,1-.438-.6,1.091,1.091,0,0,1-.143-.558h-.438a1.425,1.425,0,0,0,.162.705,4.229,4.229,0,0,0,.479.661,4.008,4.008,0,0,1,.457.636,1.387,1.387,0,0,1,.154.674,1.066,1.066,0,0,1-.256.749.952.952,0,0,1-.739.28,1,1,0,0,1-.739-.268.969.969,0,0,1-.272-.722,1.882,1.882,0,0,1,.12-.676l-.377-.107a1.875,1.875,0,0,0-.181.79,1.394,1.394,0,0,0,.17.684,1.23,1.23,0,0,0,.5.487,1.6,1.6,0,0,0,.781.181,1.476,1.476,0,0,0,1.048-.38,1.316,1.316,0,0,0,.408-1.01,1.7,1.7,0,0,0-.1-.591A2.1,2.1,0,0,0,204.764,3954.411Zm3.937.914a1.322,1.322,0,0,0,.679-.295.826.826,0,0,0,.257-.651.9.9,0,0,0-.148-.534,2.461,2.461,0,0,0-.426-.442,2.439,2.439,0,0,1-.317-.315.5.5,0,0,1-.1-.3H208.2a.753.753,0,0,0,.132.439,2.069,2.069,0,0,0,.374.363,2.194,2.194,0,0,1,.369.367.724.724,0,0,1,.121.443.666.666,0,0,1-.242.556,1.06,1.06,0,0,1-.679.193h-.459l-.031.355h.415a1.077,1.077,0,0,1,.845.319,1.254,1.254,0,0,1,.287.868,1.276,1.276,0,0,1-.328.925,1.167,1.167,0,0,1-.879.339,1.291,1.291,0,0,1-1.2-.641,3.435,3.435,0,0,1-.377-1.742,6.641,6.641,0,0,1,.14-1.437,8.286,8.286,0,0,1,.441-1.355h-.445a7.407,7.407,0,0,0-.441,1.32,6.7,6.7,0,0,0-.147,1.479,3.667,3.667,0,0,0,.475,1.966,1.689,1.689,0,0,0,1.554.765,1.8,1.8,0,0,0,.86-.2,1.469,1.469,0,0,0,.592-.567,1.637,1.637,0,0,0,.215-.844,1.453,1.453,0,0,0-.306-.963A1.115,1.115,0,0,0,208.7,3955.325Zm3.651-2.641a1.385,1.385,0,0,0-1.146.507,2.1,2.1,0,0,0-.408,1.356,4.976,4.976,0,0,0,.125,1.132,6.876,6.876,0,0,0,.335,1.049h.438a6.229,6.229,0,0,1-.453-2.191,1.841,1.841,0,0,1,.287-1.114.963.963,0,0,1,.822-.384.942.942,0,0,1,.807.376,1.875,1.875,0,0,1,.279,1.122,5.12,5.12,0,0,1-.117,1.1,7.057,7.057,0,0,1-.335,1.088h.43a7.031,7.031,0,0,0,.339-1.034,4.815,4.815,0,0,0,.128-1.147,2.131,2.131,0,0,0-.4-1.367A1.369,1.369,0,0,0,212.352,3952.684Zm5.047,1.727c-.091-.13-.211-.286-.362-.467a4.606,4.606,0,0,1-.438-.6,1.1,1.1,0,0,1-.143-.558h-.438a1.414,1.414,0,0,0,.163.705,4.214,4.214,0,0,0,.478.661,3.883,3.883,0,0,1,.457.636,1.387,1.387,0,0,1,.154.674,1.066,1.066,0,0,1-.256.749.952.952,0,0,1-.739.28,1,1,0,0,1-.739-.268.969.969,0,0,1-.272-.722,1.861,1.861,0,0,1,.121-.676l-.377-.107a1.86,1.86,0,0,0-.181.79,1.393,1.393,0,0,0,.169.684,1.23,1.23,0,0,0,.5.487,1.6,1.6,0,0,0,.781.181,1.48,1.48,0,0,0,1.049-.38,1.319,1.319,0,0,0,.407-1.01,1.72,1.72,0,0,0-.1-.591A2.143,2.143,0,0,0,217.4,3954.411Zm-80.418-71.018h32.151l3.53,3.475a.17.17,0,0,0,.121.049h26.851a.171.171,0,0,0,.123-.051h0l1.381-1.4H220.68l1.381,1.524,0,0a.167.167,0,0,0,.123.054h18.617a.173.173,0,0,0,0-.346h-18.54l-1.38-1.524-.005,0c-.014-.015-.037-.017-.056-.026a.171.171,0,0,0-.064-.027h-19.7l-.006,0a.173.173,0,0,0-.116.049h0l-1.381,1.4H172.854l-3.53-3.474c-.018-.018-.043-.018-.065-.027s-.034-.023-.056-.023H136.981a.173.173,0,1,0,0,.346Zm0,21.717h32.191l3.553,1.268a.167.167,0,0,0,.058.01H199.64l1.432-.048H220.75l1.432.061h18.624a.173.173,0,0,0,0-.346H222.2l-1.432-.061,0,0,0,0h-19.7l-1.432.048H172.814l-3.553-1.268c-.01,0-.02,0-.03,0s-.017-.011-.028-.011H136.981a.173.173,0,0,0,0,.346Zm0,1.67h32.195l3.556,1.1a.176.176,0,0,0,.051.008h26.844l1.432.06h19.705l1.432-.056h18.61a.173.173,0,1,0,0-.346H222.189l0,0,0,0-1.426.056H201.066l-1.424-.06H172.809l-3.555-1.1c-.009,0-.018,0-.027,0s-.015-.01-.024-.01H136.981a.173.173,0,1,0,0,.346Zm4.014-3.687v-1.324h-4.014a.173.173,0,1,1,0-.346h4.014V3900.1h-4.014a.173.173,0,1,1,0-.346h4.014v-1.324h-4.014a.173.173,0,1,1,0-.346h4.014v-1.325h-4.014a.173.173,0,0,1,0-.346h4.014v-1.324h-4.014a.173.173,0,1,1,0-.346h4.014v-1.325h-4.014a.173.173,0,1,1,0-.346h4.014v-1.324h-4.014a.173.173,0,0,1,0-.346h4.014v-1.133c0-.065.015-.127.019-.192h-4.033a.173.173,0,1,1,0-.346h4.069a2.9,2.9,0,0,1,.632-1.324h-4.7a.173.173,0,1,1,0-.346h5.038a2.923,2.923,0,0,1,3.883,0h5.248a2.924,2.924,0,0,1,3.884,0h5.25a2.923,2.923,0,0,1,3.883,0H169.2c.021,0,.035.015.054.022s.041,0,.057.018l3.532,2.966h2.578a2.786,2.786,0,0,1,4.222,0h2.813a4.518,4.518,0,0,1,1.135-1.152H172.783a.169.169,0,0,1-.115-.044l-3.531-3.135H136.981a.173.173,0,1,1,0-.346H169.2c.022,0,.037.016.056.023s.042.006.059.021l3.531,3.135H184.17a4.5,4.5,0,0,1,4.08,0h11.32l1.383-1.192c.017-.014.037-.011.056-.018s.035-.024.057-.024h6.158l2.241-1.26h-8.33l-1.382,1.295a.176.176,0,0,1-.119.047H172.783a.169.169,0,0,1-.118-.047l-3.531-3.3H136.981a.173.173,0,1,1,0-.346H169.2c.02,0,.034.016.053.022s.047.008.065.025l3.531,3.305h26.714l1.378-1.291h0l0,0c.015-.014.036-.012.053-.02a.16.16,0,0,1,.065-.027h9.015l.736-.413a.172.172,0,0,1,.17,0l.736.413h9.035c.016,0,.029.013.045.018a.181.181,0,0,1,.077.033h0l1.381,1.411h18.544a.173.173,0,0,1,0,.346H222.189a.172.172,0,0,1-.122-.051h0l-1.382-1.412h-8.346l2.242,1.26h6.157l.008,0a.17.17,0,0,1,.131.044l1.382,1.3h3.525a2.955,2.955,0,0,1,4.283,0h10.74a.173.173,0,1,1,0,.346H230.354a2.911,2.911,0,0,1,.481,1.142h9.971a.173.173,0,1,1,0,.346h-9.935c0,.065.019.127.019.193v.95h9.916a.173.173,0,1,1,0,.346H230.89v1.143h9.916a.173.173,0,1,1,0,.346H230.89v1.142h9.916a.173.173,0,1,1,0,.346H230.89v1.143h9.916a.173.173,0,1,1,0,.346H230.89v1.143h9.916a.173.173,0,1,1,0,.346H230.89v1.143h9.916a.173.173,0,1,1,0,.346H230.89v1.142h9.916a.173.173,0,1,1,0,.346H230.89v1.143h9.916a.173.173,0,0,1,0,.346H222.189a.125.125,0,0,1-.034,0l-1.416-.291h-3.516a14.139,14.139,0,0,1,2.043,1.259h1.491l.011.005.01,0,1.422.177h18.606a.173.173,0,0,1,0,.346H222.189l-.021,0-1.424-.177H201.079l-1.426.155h-26.87a.185.185,0,0,1-.065-.012l-3.549-1.439H136.981a.173.173,0,1,1,0-.346Zm5.585-3.808h-2.447v3.808h2.447Zm0-3.394h-2.447v3.048h2.447Zm0-4.145h-2.447v3.8h2.447Zm3.547,10.023h-3.2v1.324h3.2Zm0-1.671h-3.2v1.325h3.2Zm0-1.67h-3.2v1.324h3.2v-1.324Zm0-1.671h-3.2v1.325h3.2Zm0-1.67h-3.2v1.324h3.2v-1.324Zm0-1.671h-3.2v1.325h3.2Zm0-1.67h-3.2v1.324h3.2Zm.019-1.671h-3.24c0,.065.02.127.02.192v1.133h3.2v-1.133C150.127,3890.2,150.142,3890.14,150.146,3890.075Zm2.773,9.21h-2.446v3.808h2.446Zm0-3.394h-2.446v3.048h2.446Zm0-4.145h-2.446v3.8h2.446Zm2.793,7.539h-2.447v3.808h2.447Zm0-3.394h-2.447v3.048h2.447Zm0-4.145h-2.447v3.8h2.447Zm3.548,10.023h-3.2v1.324h3.2Zm0-1.671h-3.2v1.325h3.2Zm0-1.67h-3.2v1.324h3.2v-1.324Zm0-1.671h-3.2v1.325h3.2Zm0-1.67h-3.2v1.324h3.2v-1.324Zm0-1.671h-3.2v1.325h3.2Zm0-1.67h-3.2v1.324h3.2Zm.019-1.671h-3.241c0,.065.02.127.02.192v1.133h3.2v-1.133C159.26,3890.2,159.275,3890.14,159.279,3890.075Zm2.773,9.21h-2.446v3.808h2.446Zm0-3.394h-2.446v3.048h2.446Zm0-4.145h-2.446v3.8h2.446Zm2.793,7.539H162.4v3.808h2.447Zm0-3.394H162.4v3.048h2.447Zm0-4.145H162.4v3.8h2.447Zm9.877,11.646h-1.939a.186.186,0,0,1-.072-.015l-3.546-1.608h-3.974v1.324H169.2c.012,0,.02.011.031.013s.023,0,.034,0l3.549,1.438h1.9Zm0-1.5h-1.939a.162.162,0,0,1-.077-.018l-3.544-1.778h-3.971v1.325H169.2c.013,0,.021.011.034.014s.025,0,.037,0l3.547,1.608h1.9Zm0-1.5h-1.939a.177.177,0,0,1-.083-.021l-3.542-1.948h-3.967v1.324H169.2c.014,0,.023.012.037.016s.027,0,.04,0l3.544,1.778h1.9Zm0-1.5h-1.939a.179.179,0,0,1-.089-.024l-3.539-2.118h-3.964v1.325H169.2c.015,0,.025.013.04.016s.03,0,.043.005l3.542,1.948h1.894Zm0-1.5h-1.939a.179.179,0,0,1-.094-.027l-3.538-2.287h-3.96v1.324H169.2c.017,0,.027.014.043.018s.031,0,.046.007l3.539,2.117h1.891Zm0-1.5h-1.939a.173.173,0,0,1-.1-.031l-3.536-2.457h-3.957v1.325H169.2c.018,0,.029.013.045.018s.034,0,.049.009l3.538,2.287h1.887Zm0-1.5h-1.939a.172.172,0,0,1-.1-.034l-3.534-2.626h-3.955v1.324H169.2c.018,0,.031.014.048.02s.035,0,.051.011l3.535,2.457h1.885Zm0-1.5h-1.939a.172.172,0,0,1-.107-.037l-3.534-2.8h-3.971c0,.065.02.127.02.192v1.133H169.2c.019,0,.032.014.05.02s.037,0,.053.014l3.534,2.626h1.882Zm6.966,10.484h-1.34v1.152h1.34Zm0-1.5h-1.34v1.151h1.34Zm0-1.5h-1.34v1.152h1.34Zm0-1.5h-1.34v1.152h1.34Zm0-1.5h-1.34v1.151h1.34Zm0-1.5h-1.34v1.152h1.34Zm0-1.5h-1.34v1.152h1.34Zm.055-1.5h-1.395v1.152h1.34v-.49A4.382,4.382,0,0,1,181.743,3892.908Zm10.328,10.484h-1.34v1.152h1.34Zm0-1.5h-1.34v1.151h1.34Zm0-1.5h-1.34v1.152h1.34Zm0-1.5h-1.34v1.152h1.34Zm0-1.5h-1.34v1.151h1.34Zm0-1.5h-1.34v1.152h1.34Zm0-1.5h-1.34v1.152h1.34Zm0-1.5h-1.394a4.515,4.515,0,0,1,.054.662v.49h1.34Zm.438-1.5h-2.336a4.46,4.46,0,0,1,.439,1.151H192.1A2.74,2.74,0,0,1,192.509,3891.411Zm4.842,1.484a2.467,2.467,0,0,0-4.934,0v11.649h4.934V3892.9Zm.312-.333h1.916l1.387-.986c.016-.011.035-.007.053-.012s.029-.02.047-.02h6.87v-1.259h-6.81l-1.385,1.089a.17.17,0,0,1-.107.037h-2.375A2.739,2.739,0,0,1,197.663,3892.562Zm10.273,8.615v-1.259H201.1l-1.406.47a.169.169,0,0,1-.055.009H197.7v1.152h1.914l1.412-.366c.008,0,.014,0,.022,0s.013-.009.021-.009Zm-6.845.346-1.413.366a.159.159,0,0,1-.044.005H197.7v1.152h1.921l1.417-.26c.006,0,.01,0,.016,0s.009-.006.015-.006h4.2c.01,0,.015.009.025.01a13.842,13.842,0,0,1,2.648-.846v-.424Zm6.845-1.951v-1.26H201.1l-1.4.574a.168.168,0,0,1-.066.013H197.7v1.152h1.909l1.4-.47c.01,0,.019,0,.029,0s.016-.011.026-.011Zm0-1.606v-1.259h-6.83l-1.4.677a.169.169,0,0,1-.076.017H197.7v1.152h1.9l1.4-.574c.011,0,.022,0,.034,0s.019-.013.031-.013Zm0-1.6v-1.26h-6.824l-1.393.781a.175.175,0,0,1-.085.022H197.7v1.151h1.9l1.4-.677c.013-.006.026,0,.04,0s.021-.015.035-.015Zm0-1.606V3893.5h-6.819l-1.39.883a.175.175,0,0,1-.093.027H197.7v1.152h1.892l1.393-.781c.014-.008.029,0,.044-.005s.025-.017.04-.017Zm0-1.6v-1.26h-6.814l-1.387.986a.173.173,0,0,1-.1.032H197.7v1.152h1.887l1.39-.883c.015-.01.032,0,.048-.009s.027-.018.044-.018Zm-5.4,11.238a14.129,14.129,0,0,1,2.042-1.259h-3.495l-1.419.261-.031,0H197.7v1.152h1.928l1.423-.154.009,0,.009,0h1.472Zm11.148-2.125-.027,0c-.456-.094-.911-.163-1.36-.212l-.047-.005a13.107,13.107,0,0,0-2.7,0l-.046.005c-.45.049-.9.118-1.361.212l-.026,0a13.51,13.51,0,0,0-4.971,2.125h15.509A13.513,13.513,0,0,0,213.686,3902.263Zm-.165-4.3V3894.3h-2.446v3.662Zm-2.446.346v3.314c.1,0,.2.014.295.018.3.01.6.025.893.053.024,0,.048.006.072.009.4.04.795.1,1.186.171v-3.565Zm2.446-4.354v-3.673h-2.446v3.673Zm0-4.019v-1.26h-5.239v1.26h5.239Zm-5.239.346v3.673h2.447v-3.673Zm0,4.019v3.662h2.447V3894.3Zm0,4.008v3.565c.392-.073.787-.131,1.186-.171.024,0,.048-.007.072-.009.3-.028.594-.043.893-.053.1,0,.2-.016.3-.018v-3.314Zm16.677,3.624h-2.77a.188.188,0,0,1-.047-.006l-1.411-.406h-6.864v.424a13.814,13.814,0,0,1,2.639.842c.005,0,.009-.006.014-.006h4.237c.007,0,.011.006.018.007s.011,0,.017,0l1.415.291h2.752Zm0-1.489h-2.77a.174.174,0,0,1-.059-.011l-1.4-.518h-6.859v1.259h6.87c.011,0,.017.01.028.012s.026-.009.04,0l1.409.405h2.745Zm0-1.489h-2.77a.185.185,0,0,1-.071-.015l-1.4-.631h-6.853v1.26h6.87c.012,0,.019.01.031.013s.033-.008.049,0l1.4.519h2.738v-1.143Zm0-1.489h-2.77a.171.171,0,0,1-.081-.02l-1.394-.742h-6.847v1.259h6.87c.013,0,.021.011.033.014s.039-.007.058,0l1.4.63h2.732Zm0-1.488h-2.77a.174.174,0,0,1-.09-.025l-1.391-.854h-6.841v1.26h6.87c.013,0,.02.011.032.013s.047-.005.069.007l1.4.742h2.726v-1.142Zm0-1.489h-2.77a.17.17,0,0,1-.1-.031l-1.388-.965h-6.836v1.259h6.87c.012,0,.02.011.031.013a.17.17,0,0,1,.08.013l1.39.853h2.721Zm0-1.489h-2.77a.177.177,0,0,1-.106-.036l-1.385-1.077h-6.831v1.26h6.87c.01,0,.016.009.025.01a.161.161,0,0,1,.094.021l1.388.965h2.715Zm.02-1.488h-2.79a.168.168,0,0,1-.112-.041l-1.384-1.188h-6.826v1.259h6.87c.005,0,.008.005.012.005a.167.167,0,0,1,.114.032l1.386,1.076h2.71v-.95C224.959,3891.641,224.974,3891.579,224.979,3891.515Zm2.773,8.207H225.3v3.356h2.447Zm0-3.025H225.3v2.679h2.447Zm0-3.694H225.3v3.348h2.447Zm2.792,6.719H228.1v3.356h2.446Zm0-3.025H228.1v2.679h2.446Zm0-3.694H228.1v3.348h2.446Zm-5.239-1.3v.95h5.239v-.95a2.62,2.62,0,0,0-5.239,0Zm-10.771-3.028h-.667v1.26h6.875a.17.17,0,0,1,.128.04l1.384,1.188h2.76a2.909,2.909,0,0,1,.481-1.143h-3.306a.173.173,0,0,1-.118-.047l-1.383-1.3Zm-6.6-.346h5.943l-2.971-1.67Zm-19.1,1.58a4.539,4.539,0,0,1,1.136,1.152h2.813a2.785,2.785,0,0,1,4.221,0h2.58l1.384-1.089c.017-.013.037-.01.056-.016s.031-.021.051-.021h6.87v-1.26h-6.805l-1.384,1.192a.171.171,0,0,1-.113.042Zm-6.791,3.657v10.974h8.351V3893.57a4.09,4.09,0,0,0-.649-2.21h0a4.178,4.178,0,0,0-7.7,2.211Zm-2.124-2.159a2.739,2.739,0,0,1,.4,1.151h1.493a4.426,4.426,0,0,1,.44-1.151Zm-4.842,1.484v11.649H180V3892.9a2.467,2.467,0,0,0-4.934,0Zm-10.564-4.49a2.9,2.9,0,0,1,.632,1.324H169.2c.021,0,.034.015.053.022s.038,0,.054.016l3.534,2.795h1.912a2.739,2.739,0,0,1,.4-1.151h-2.377a.174.174,0,0,1-.111-.041l-3.532-2.965Zm-4.9,1.862v1.133h5.239v-1.133a2.62,2.62,0,0,0-5.239,0Zm-4.235-1.862a2.9,2.9,0,0,1,.632,1.324h3.312a2.9,2.9,0,0,1,.632-1.324Zm-4.9,1.862v1.133h5.239v-1.133a2.62,2.62,0,0,0-5.239,0Zm-4.234-1.862a2.9,2.9,0,0,1,.632,1.324h3.31a2.916,2.916,0,0,1,.633-1.324Zm-4.9,2.995h5.239v-1.133a2.611,2.611,0,0,0-4.361-1.927.169.169,0,0,1-.029.024,2.573,2.573,0,0,0-.849,1.9Zm0,4.145h2.446v-3.8h-2.446Zm0,3.394h2.446v-3.048h-2.446Zm0,4.154h2.446v-3.808h-2.446Zm31.442,28.41h2.891a5.831,5.831,0,0,1-.793-1.152h-2.064l-3.548,1.474a.17.17,0,0,1-.066.014H136.981a.173.173,0,0,1,0-.346h32.187l3.549-1.474c.011-.005.022,0,.034,0s.02-.014.032-.014h1.93a5.715,5.715,0,0,1-.373-1.151h-1.526l-3.552,1.3a.168.168,0,0,1-.059.01H136.981a.173.173,0,1,1,0-.346h32.191l3.551-1.3c.011,0,.021,0,.031,0s.018-.011.029-.011h1.5a5.86,5.86,0,0,1-.068-.843v-.309h-1.406l-3.555,1.134a.2.2,0,0,1-.053.008H136.981a.173.173,0,1,1,0-.346h32.194l3.555-1.134c.01,0,.018,0,.028,0s.015-.011.025-.011h1.434v-1.152h-1.411l-3.558.963a.178.178,0,0,1-.045.006H136.981a.173.173,0,1,1,0-.346h32.2l3.558-.963c.008,0,.015,0,.023,0s.013-.009.022-.009h1.434v-1.152H172.8l-3.563.792a.159.159,0,0,1-.037,0H136.981a.173.173,0,1,1,0-.346h4.014v-1.324h-4.014a.173.173,0,0,1,0-.346h4.014v-1.325h-4.014a.173.173,0,1,1,0-.346h4.014v-1.324h-4.014a.173.173,0,1,1,0-.346h4.014v-1.325h-4.014a.173.173,0,0,1,0-.346h4.014V3916.8h-4.014a.173.173,0,1,1,0-.346h4.014v-1.325h-4.014a.173.173,0,1,1,0-.346h4.014v-1.324h-4.014a.173.173,0,1,1,0-.346h4.014v-1.134c0-.065.015-.126.019-.191h-4.032a.173.173,0,1,1,0-.346h4.067a2.914,2.914,0,0,1,.632-1.324h-4.7a.173.173,0,0,1,0-.346h5.035a2.925,2.925,0,0,1,3.891,0l.01,0h5.231a2.925,2.925,0,0,1,3.891,0l.01,0h5.232a2.924,2.924,0,0,1,3.886,0H169.2c.006,0,.01.006.017.007s.012,0,.019,0l3.563.756h2.587a2.783,2.783,0,0,1,3.281,0H183.8a4.513,4.513,0,0,1,4.833,0l.008,0h5.112a2.783,2.783,0,0,1,3.281,0h2.6c.007,0,.01.006.016.006s.011,0,.017,0l1.415.273h2.088v-1.26h-2.124l-1.423-.167h-26.84a.164.164,0,0,1-.044-.005l-3.558-.927h-32.2a.173.173,0,1,1,0-.346H169.2c.008,0,.013.008.021.009s.014-.005.023,0l3.558.926h26.829l.01,0,.011,0,1.42.167h2.1v-.424a.173.173,0,0,1,.173-.173h15.14a.173.173,0,0,1,.173.173v.424h2.094l1.419-.171.011,0,.009,0h18.617a.173.173,0,1,1,0,.346H222.2l-1.421.171h-2.122v1.26h2.085l1.414-.286c.006,0,.012,0,.018,0s.01-.007.016-.007h18.617a.173.173,0,1,1,0,.346h-18.6l-1.416.287h-.019l0,0h-2.114v1.259h2.078l1.408-.4c.009,0,.016,0,.025,0s.014-.01.022-.01h3.594a2.955,2.955,0,0,1,4.283,0h2.864a2.955,2.955,0,0,1,4.283,0h3.593a.173.173,0,1,1,0,.346h-3.3a2.909,2.909,0,0,1,.481,1.143h2.824a.173.173,0,1,1,0,.346h-2.788c0,.065.019.126.019.192v.951h2.769a.173.173,0,1,1,0,.346h-2.769v1.142h2.769a.173.173,0,1,1,0,.346h-2.769v1.143h2.769a.173.173,0,1,1,0,.346h-2.769v1.143h2.769a.173.173,0,1,1,0,.346h-2.769v1.142h2.769a.173.173,0,0,1,0,.346h-2.769v1.143h2.769a.173.173,0,0,1,0,.346h-2.769v1.143h2.769a.173.173,0,0,1,0,.346h-2.769v1.142h2.769a.173.173,0,1,1,0,.346H222.262l-1.362,1.387a.163.163,0,0,1-.13.071h-2.114v1.26h2.025l1.381-1.518,0,0a.16.16,0,0,1,.062-.029c.02-.009.036-.024.058-.024l0,0h18.617a.173.173,0,1,1,0,.346h-18.54l-1.364,1.5a.164.164,0,0,1-.132.075h-2.114v1.259h2.021l1.38-1.63.007,0a.186.186,0,0,1,.058-.03.179.179,0,0,1,.06-.024l.007,0h18.617a.173.173,0,1,1,0,.346H222.27l-1.367,1.614a.165.165,0,0,1-.133.077h-1.692v.758h.553a.173.173,0,0,1,.173.173v.329h.87l1.38-1.743.009,0a.167.167,0,0,1,.057-.032.177.177,0,0,1,.059-.025l.01,0h18.617a.173.173,0,1,1,0,.346H222.273l-1.38,1.744-.009,0a.166.166,0,0,1-.117.057l-.01.005H219.8v.232h.554a.174.174,0,0,1,.173.173v.854h.14l1.38-1.855s.008,0,.011-.007a.149.149,0,0,1,.053-.032.151.151,0,0,1,.063-.026s.007,0,.011,0h18.617a.173.173,0,1,1,0,.346H222.277l-1.381,1.856-.011.006a.166.166,0,0,1-.12.06l-.008,0H201.066l-.01-.005a.172.172,0,0,1-.116-.055l-.009,0-1.38-1.721h-3.133a5.884,5.884,0,0,1-4.1,1.66h-2.437a.173.173,0,0,1-.173-.173v-1.487h-7v1.487a.173.173,0,0,1-.173.173H180.1a5.885,5.885,0,0,1-4.1-1.66h-3.179l-3.546,1.644a.176.176,0,0,1-.073.016H136.981a.173.173,0,1,1,0-.346h32.183l3.546-1.644c.013-.006.026,0,.039,0S172.77,3931.5,172.783,3931.5Zm54.969-9.451H225.3v3.356h2.447Zm0-3.024H225.3v2.678h2.447Zm0-3.7H225.3v3.349h2.447Zm2.792,6.719H228.1v3.356h2.446Zm0-3.024H228.1v2.678h2.446Zm0-3.7H228.1v3.349h2.446Zm1.562,8.933H230.89v1.142h1.216Zm0-1.489H230.89v1.143h1.216Zm0-1.489H230.89v1.143h1.216v-1.143Zm0-1.488H230.89v1.142h1.216Zm0-1.489H230.89v1.143h1.216v-1.143Zm0-1.489H230.89v1.143h1.216Zm0-1.488H230.89v1.142h1.216Zm.02-1.489h-1.255c0,.065.019.126.019.192v.951h1.216v-.951C232.106,3913.971,232.121,3913.91,232.126,3913.845Zm2.773,8.207h-2.447v3.356H234.9Zm0-3.024h-2.447v2.678H234.9Zm0-3.7h-2.447v3.349H234.9Zm2.792,6.719h-2.446v3.356h2.446Zm0-3.024h-2.446v2.678h2.446Zm0-3.7h-2.446v3.349h2.446Zm-5.239-1.3v.95h5.239v-.95a2.62,2.62,0,0,0-5.239,0Zm-2.1-1.681a2.909,2.909,0,0,1,.481,1.143h1.326a2.911,2.911,0,0,1,.482-1.143Zm-5.049,1.681v.95h5.239v-.95a2.62,2.62,0,0,0-5.239,0Zm-6.649-.015h2.071l1.4-.513c.011,0,.021,0,.031,0s.017-.012.028-.012h2.825a2.924,2.924,0,0,1,.481-1.143h-3.281l-1.409.4a.158.158,0,0,1-.03,0l0,0h-2.114Zm0,1.606h2.065l1.4-.625c.012-.006.025,0,.037,0s.021-.013.033-.013h2.77v-.951c0-.066.015-.127.02-.192H222.22l-1.4.512a.128.128,0,0,1-.038.007l-.009,0h-2.114Zm0,1.6h2.059l1.394-.737c.013-.007.028,0,.042,0s.024-.016.038-.016h2.77v-1.142h-2.732l-1.4.625a.148.148,0,0,1-.047.01l-.011,0h-2.114Zm0,1.606h2.053l1.39-.849c.015-.009.032,0,.048-.008s.026-.017.042-.017h2.77v-1.143h-2.726l-1.4.737a.162.162,0,0,1-.053.013c-.006,0-.009.007-.015.007h-2.114Zm0,1.6H220.7l1.387-.96c.015-.01.034,0,.05-.01s.03-.02.048-.02h2.77v-1.143h-2.721l-1.346.821-.007,0-.038.023a.177.177,0,0,1-.055.015c-.008,0-.014.01-.022.01h-2.114Zm0,1.606H220.7l1.385-1.072c.016-.012.037-.009.055-.015s.031-.021.05-.021h2.77V3919.8h-2.716l-1.348.933c-.006.006-.014.008-.02.014l-.019.013a.162.162,0,0,1-.052.016c-.013,0-.021.014-.034.014h-2.114Zm0,1.6h2.038l1.383-1.183c.017-.014.039-.012.059-.019s.033-.022.053-.022h2.77v-1.143h-2.711l-1.352,1.046a.119.119,0,0,1-.025.019l-.008.007c-.012.009-.027.008-.041.014s-.032.022-.052.022h-2.114Zm0,1.606h2.033l1.382-1.295c.017-.015.039-.014.059-.022s.036-.024.059-.024h2.77v-1.143h-2.706l-1.355,1.159a.151.151,0,0,1-.027.023h0l-.009,0a.164.164,0,0,1-.091.038h-2.114Zm0,1.6h2.029l1.381-1.406h0c.014-.014.037-.015.056-.023a.171.171,0,0,1,.066-.027h2.77v-1.142h-2.7l-1.359,1.272a.165.165,0,0,1-.129.069h-2.114Zm-35.065,3.672v-.669h-1.205a2.517,2.517,0,0,1,.261.669Zm-1.45-18.159H179.8a2.746,2.746,0,0,1,.042.418v.734h1.921A4.465,4.465,0,0,1,182.141,3912.379Zm-.107,14.631h8.351v-1.152h-8.351Zm-.346-1.5v-1.152h-1.846v1.152Zm-1.846.346v1.152h1.846v-1.152Zm1.846-1.844v-1.151h-1.846v1.151Zm0-1.5v-1.152h-1.846v1.152Zm0-1.5v-1.152h-1.846v1.152Zm0-1.5v-1.151h-1.846v1.151Zm0-1.5v-1.152h-1.846v1.152Zm0-1.5v-1.152h-1.846v1.152Zm0-1.5v-.7a4.426,4.426,0,0,1,.023-.449h-1.869v1.151Zm-1.846,13.464c.085.007.17.017.254.018l.005,0h5.194a1.482,1.482,0,0,1,1.83,0h5.215c.078,0,.158-.01.237-.016v-1.136H181.861c-.006,0-.009-.006-.015-.006s-.01.006-.016.006h-1.988Zm12.735-2.98v-1.152h-1.846v1.152Zm-1.846.346v1.152h1.846v-1.152Zm1.846-1.844v-1.151h-1.846v1.151Zm0-1.5v-1.152h-1.846v1.152Zm0-1.5v-1.152h-1.846v1.152Zm0-1.5v-1.151h-1.846v1.151Zm0-1.5v-1.152h-1.846v1.152Zm0-1.5v-1.152h-1.846v1.152Zm0-1.5v-1.151h-1.869a4.422,4.422,0,0,1,.023.449v.7Zm0-1.5v-.734a2.746,2.746,0,0,1,.042-.418h-2.341a4.465,4.465,0,0,1,.378,1.152Zm-2.877,15.323v.669h.557a2.583,2.583,0,0,1,.779-.669Zm-3.49-.316a1.161,1.161,0,0,0-1.164,1.155V3930h2.327v-.312A1.16,1.16,0,0,0,186.21,3928.538Zm-4.831.316a2.57,2.57,0,0,1,.782.669h.558v-.669Zm3.083,2.03h-1.773c.006.069.021.135.021.205v.414h1.749Zm4.021-.346v-.842a.172.172,0,0,1,.172-.173h.7v-.669H187.46a1.478,1.478,0,0,1,.259.839v.485a.173.173,0,0,1-.173.173h-2.673a.173.173,0,0,1-.173-.173v-.485a1.478,1.478,0,0,1,.259-.839h-1.894v.669h.7a.173.173,0,0,1,.173.173v.842h.7a.169.169,0,0,1,.122.051.171.171,0,0,1,.051.123l0,.791h2.809l0-.791a.17.17,0,0,1,.05-.123.173.173,0,0,1,.123-.051Zm1.247.346h-1.772l0,.619h1.749v-.414C189.709,3931.019,189.725,3930.953,189.73,3930.884Zm.3-1.015h-1.205v.669h.944A2.517,2.517,0,0,1,190.033,3929.869Zm7.824-2.2v-3.57c-.789,2.445-2.849,4.65-5.361,4.751-.006,0-.011.008-.017.008h-.117l-.043,0a2.248,2.248,0,0,0-2.264,2.233v2.074h2.264A5.525,5.525,0,0,0,197.857,3927.665Zm-2.593-.309h-2.341v1.095A5.214,5.214,0,0,0,195.264,3927.356Zm7.906-.49v-1.259h-2.1a.174.174,0,0,1-.113-.042l-1.383-1.2H198.2v1.152h1.431c.023,0,.039.017.06.025s.043.007.059.023l1.382,1.306Zm-2.1.346h0a.174.174,0,0,1-.119-.048l-1.381-1.307H198.2v1.152h1.432c.024,0,.044.018.067.028s.041.009.055.024h0l1.381,1.41h2.031v-1.26Zm2.1-1.951V3924h-2.1a.172.172,0,0,1-.107-.037l-1.385-1.1H198.2v1.151h1.431c.022,0,.036.016.055.023s.042,0,.059.02l1.383,1.2Zm0-1.606V3922.4h-2.1a.174.174,0,0,1-.1-.033l-1.387-1H198.2v1.152h1.431c.021,0,.034.015.052.021s.04,0,.056.016l1.384,1.1Zm0-1.6v-1.26h-2.1a.175.175,0,0,1-.093-.027l-1.39-.9H198.2v1.152h1.431c.019,0,.032.015.049.02s.037,0,.053.013l1.386,1Zm0-1.606v-1.259h-2.1a.166.166,0,0,1-.085-.023l-1.392-.792H198.2v1.151h1.431c.018,0,.029.014.045.019s.034,0,.049.009l1.389.9Zm0-1.6v-1.26h-2.1a.158.158,0,0,1-.076-.018l-1.4-.689H198.2v1.152h1.431c.017,0,.027.013.042.017s.03,0,.044,0l1.392.793Zm0-1.606v-1.26h-2.1a.177.177,0,0,1-.067-.013l-1.4-.587h-1.4v1.152h1.431c.015,0,.024.012.037.015s.027,0,.04,0l1.4.689Zm0-1.6v-1.26h-2.1a.184.184,0,0,1-.056-.009l-1.4-.482h-1.4v1.151h1.431c.013,0,.021.011.032.013s.023-.005.035,0l1.4.587Zm0-1.606v-1.26h-2.1a.14.14,0,0,1-.044-.006l-1.41-.377H198.16a2.746,2.746,0,0,1,.043.418v.734h1.431c.011,0,.017.009.027.011s.02-.006.03,0l1.4.482Zm-5.036,14.486h1.505a.185.185,0,0,1,.059.025.165.165,0,0,1,.06.028l0,0,1.381,1.513h2.027v-1.259h-2.1c-.019,0-.034-.016-.052-.022a.175.175,0,0,1-.07-.029h0l-1.381-1.41H198.2v.309A5.721,5.721,0,0,1,198.134,3928.508Zm-.054.346a5.716,5.716,0,0,1-.374,1.151h1.928l.007,0a.165.165,0,0,1,.06.025.159.159,0,0,1,.058.03l.007,0,1.38,1.617h.876v-.329a.173.173,0,0,1,.173-.173h.553v-.758h-1.682a.171.171,0,0,1-.124-.054l0,0-1.38-1.513Zm3.942,3.407v-.232h-.956s-.009-.007-.014-.007a.174.174,0,0,1-.111-.051l-.006,0-1.38-1.618h-2.017a5.83,5.83,0,0,1-.793,1.152h2.889l.01,0a.15.15,0,0,1,.06.025.165.165,0,0,1,.057.031l.008.005,1.38,1.72h.149l0-.853a.173.173,0,0,1,.051-.123.17.17,0,0,1,.122-.051Zm-.38.346,0,.681h18.541v-.681Zm17.26-1.08H202.368v.734h17.09v-.734H218.9Zm-15.386-1.45h2.077v-19.9a.174.174,0,0,1,.173-.173h10.677a.174.174,0,0,1,.173.173v19.9h1.694v-21.123H203.516Zm11.476-14.086v14.086h1.278v-19.731H205.939v19.731h1.1v-14.086a3.978,3.978,0,0,1,7.956,0Zm-.811-1.729a3.62,3.62,0,0,0-1.113-1.239l-1.589,2.679Zm-2.474,1.711h2.937a3.535,3.535,0,0,0-.3-1.407Zm1.059-3.12a3.6,3.6,0,0,0-1.579-.45v3.112Zm-1.579,3.466v13.758h3.459v-13.758Zm-3.506-1.753a3.57,3.57,0,0,0-.3,1.407h2.938Zm2.869,1.136-1.589-2.679a3.62,3.62,0,0,0-1.113,1.239Zm-3.168.617v13.758h3.459v-13.758Zm3.459-.8V3912.4a3.612,3.612,0,0,0-1.579.45Zm-7.747,14.908v.758h15.638v-.758H203.094Zm-5.666-19.542a2.763,2.763,0,0,1,.654,1.152h1.552c.009,0,.014.007.022.009s.015-.006.023,0l1.409.377h2.082v-1.259h-2.1l-.033,0-1.417-.273Zm-4.5,1.916v14.213h2.744a6.914,6.914,0,0,0,2.19-5.015v-9.2a2.467,2.467,0,0,0-4.934,0Zm-3.818-1.916a4.5,4.5,0,0,1,.985,1.152H192.7a2.785,2.785,0,0,1,.654-1.152Zm-7.071,3.445v11.186h8.351v-11.186a4.176,4.176,0,0,0-8.351,0Zm-2.966-3.445a2.774,2.774,0,0,1,.654,1.152h2.607a4.516,4.516,0,0,1,.985-1.152Zm-4.5,1.916v9.2a6.92,6.92,0,0,0,2.187,5.015H179.5V3912.8a2.467,2.467,0,0,0-4.933,0Zm2.589,14.559a5.194,5.194,0,0,0,2.344,1.1v-1.1ZM143.787,3921h-2.446v3.808h2.446Zm0-3.394h-2.446v3.048h2.446Zm0-4.145h-2.446v3.8h2.446ZM146.58,3921h-2.447v3.808h2.447Zm0-3.394h-2.447v3.048h2.447Zm0-4.145h-2.447v3.8h2.447Zm0-1.479a2.62,2.62,0,0,0-5.239,0v1.133h5.239Zm3.547,11.5h-3.2v1.324h3.2Zm0-1.671h-3.2v1.325h3.2Zm0-1.67h-3.2v1.324h3.2v-1.324Zm0-1.671h-3.2v1.325h3.2Zm0-1.67h-3.2v1.324h3.2V3916.8Zm0-1.671h-3.2v1.325h3.2Zm0-1.67h-3.2v1.324h3.2Zm.019-1.671h-3.24c0,.065.02.126.02.191v1.134h3.2v-1.134C150.127,3911.918,150.142,3911.857,150.146,3911.792Zm.035-.346a2.914,2.914,0,0,1,.632-1.324H146.24a2.912,2.912,0,0,1,.631,1.324Zm2.738,9.555h-2.446v3.808h2.446Zm0-3.394h-2.446v3.048h2.446Zm0-4.145h-2.446v3.8h2.446Zm2.793,7.539h-2.447v3.808h2.447Zm0-3.394h-2.447v3.048h2.447Zm0-4.145h-2.447v3.8h2.447Zm0-1.479a2.62,2.62,0,0,0-5.239,0v1.133h5.239Zm3.548,11.5h-3.2v1.324h3.2Zm0-1.671h-3.2v1.325h3.2Zm0-1.67h-3.2v1.324h3.2v-1.324Zm0-1.671h-3.2v1.325h3.2Zm0-1.67h-3.2v1.324h3.2V3916.8Zm0-1.671h-3.2v1.325h3.2Zm0-1.67h-3.2v1.324h3.2Zm.019-1.671h-3.241c0,.065.02.126.02.191v1.134h3.2v-1.134C159.26,3911.918,159.275,3911.857,159.279,3911.792Zm.035-.346a2.914,2.914,0,0,1,.632-1.324h-4.575a2.9,2.9,0,0,1,.632,1.324Zm2.738,9.555h-2.446v3.808h2.446Zm0-3.394h-2.446v3.048h2.446Zm0-4.145h-2.446v3.8h2.446Zm2.793,7.539H162.4v3.808h2.447Zm0-3.394H162.4v3.048h2.447Zm0-4.145H162.4v3.8h2.447Zm0-1.479a2.62,2.62,0,0,0-5.239,0v1.133h5.239Zm9.372,10.88H172.8l-3.565.62a.139.139,0,0,1-.03,0h-4.012v1.324h3.992l3.563-.792c.007,0,.012,0,.019,0s.011-.008.018-.008h1.434Zm0-1.5h-1.423l-3.57.449h-4.033v1.325h4l3.565-.62c.006,0,.01,0,.016,0s.008-.006.014-.006h1.434v-1.152Zm0-1.5h-1.425l-3.576.278h-4.025v1.324h4l3.57-.449s.007,0,.01,0l.011,0h1.434Zm0-1.5h-1.429l-3.58.1h-4.017v1.325h4l3.576-.277.007,0,.006,0h1.434Zm0-1.5H172.78l-3.58-.068h-4.009v1.324H169.2l3.58-.1h1.439Zm0-1.5h-1.445l-3.576-.241h-4.005v1.325h4.015l3.58.068h1.431Zm0-1.5h-1.454l-3.571-.413h-4v1.324H169.2l.006,0,.005,0,3.576.241h1.427Zm.042-1.5h-1.476a.136.136,0,0,1-.028,0l-3.566-.584h-4.018c0,.065.02.126.02.191v1.134H169.2l.009,0,.011,0,3.571.413h1.423v-.734A2.746,2.746,0,0,1,174.259,3912.379Zm.732-1.5h-2.208a.151.151,0,0,1-.036,0l-3.563-.755h-4.679a2.912,2.912,0,0,1,.631,1.324H169.2s.008,0,.013.006.01,0,.015,0l3.566.585h1.54A2.785,2.785,0,0,1,174.991,3910.881Zm5.11,22.282h2.263v-2.074a2.245,2.245,0,0,0-2.25-2.233,4.387,4.387,0,0,1-.444-.024h0c-2.4-.239-4.344-2.379-5.1-4.737v3.57A5.524,5.524,0,0,0,180.1,3933.163Zm28.027-7.4v-5.081a.985.985,0,0,1,1.969,0v5.081a.172.172,0,0,1-.173.173H208.3A.172.172,0,0,1,208.128,3925.765Zm.346-.173h1.277v-4.908a.639.639,0,0,0-1.277,0Zm3.458.173v-5.081a.985.985,0,0,1,1.969,0v5.081a.172.172,0,0,1-.173.173H212.1A.172.172,0,0,1,211.932,3925.765Zm.346-.173h1.277v-4.908a.639.639,0,0,0-1.277,0Zm-75.47-44.043h0v-1.557l0-.009a.17.17,0,0,1,.038-.1l2.975-3.491a.173.173,0,0,1,.132-.061h30.671c.008,0,.011-.011.02-.013a.157.157,0,0,1,.15.058.134.134,0,0,1,.028.038c.009.015.026.025.03.041l1.055,3.623h36.3v-1.806c0-.033,0-.065,0-.1h-.572a.173.173,0,0,1-.173-.173v-.92a.172.172,0,0,1,.173-.173h.952a2.687,2.687,0,0,1,4.64,0h.952a.172.172,0,0,1,.173.173v.92a.173.173,0,0,1-.173.173h-.572c0,.031,0,.063,0,.1v1.806h24.213a.172.172,0,0,1,.131.06l2.975,3.441c.015.016.012.038.02.058s.022.033.022.055v1.7h0a.173.173,0,0,1-.173.173H222.189a.172.172,0,0,1-.125-.058l-.007,0-1.38-1.636H201.142l-1.38,1.5h0a.169.169,0,0,1-.124.055H172.783a.174.174,0,0,1-.123-.053h0l-3.529-3.645H136.981A.173.173,0,0,1,136.808,3881.549Zm89.514,2.313H221.13l1.14,1.352h4.052Zm2.134,0h-1.788v1.352h1.788Zm5.738,0H228.8v1.352h5.392Zm2.134,0H234.54v1.352h1.788Zm4.3,0h-3.959v1.352h3.959Zm-27.015-2.282h4.318a.172.172,0,0,1,.173.173v1.763h2.648l.007,0a.186.186,0,0,1,.054.021c.019-.008.035-.024.058-.024h19.552l-2.676-3.1H213.618Zm0,1.936h4.145v-1.59h-4.145Zm-2.878-2.319h-1.128v2.319h1.128Zm0-2.418h-1.128v2.072h1.128Zm1.474,2.418h-1.128v2.319h1.128Zm0-2.418h-1.128v2.072h1.128Zm0-.524a1.3,1.3,0,0,0-2.6,0v.178h2.6Zm-3.806-.428a.175.175,0,0,1,.129.057.171.171,0,0,1,.043.135l-.011.086a1.263,1.263,0,0,0-.014.164v5.247h.711v-5.261a1.647,1.647,0,0,1,3.294,0v5.261h.712v-5.247a1.069,1.069,0,0,0-.016-.162l-.01-.088a.171.171,0,0,1,.043-.135.174.174,0,0,1,.129-.057h.594v-.574h-.88a.173.173,0,0,1-.152-.091,2.343,2.343,0,0,0-4.134,0,.173.173,0,0,1-.152.091h-.88v.574Zm-59.581,2.338h-2.064v1.211h2.064Zm2.073,0h-1.727v1.211H150.9Zm4.039,0h-3.693v1.211h3.693Zm2.073,0h-1.727v1.211h1.727Zm2.409,0h-2.063v1.211h2.063Zm9.609,0h-9.263v1.211h9.263Zm5.207,3.7h-1.454a.17.17,0,0,1-.124-.053l-3.283-3.39v1.06l3.48,3.595h1.381Zm2.134,0h-1.788v1.212h1.788Zm3.594,0h-3.248v1.212h3.248Zm2.134,0h-1.788v1.212H182.1Zm7.9,0h-7.557v1.212H190Zm2.134,0h-1.788v1.212h1.788Zm3.566,0h-3.22v1.212h3.22Zm2.134,0h-1.788v1.212h1.788Zm2.837,0h-2.491v1.212h1.377Zm7.536-1.936h-4.146v1.59h4.146Zm-36.2-1.505.9,3.1h30.8v-1.763a.173.173,0,0,1,.173-.173h4.319v-1.159Zm-2.6-.464,3.012,3.11-1.745-5.992C170.492,3877.546,170.126,3878.4,169.41,3879.957Zm-32.054-.138h31.736c.583-1.27,1.192-2.65,1.372-3.145H140.036Zm-.2,1.557h9.263v-1.211h-9.263Z" transform="translate(-136.364 -3875.576)" fill="#fff"/>
</svg>
