<svg id="culture" xmlns="http://www.w3.org/2000/svg" width="45.277" height="45.392" viewBox="0 0 45.277 45.392">
  <g id="Group_218" data-name="Group 218" transform="translate(0 0)">
    <path id="Path_590" data-name="Path 590" d="M601.407,3442.982h-1.078c-1.649,0-3.3-.152-4.9-.3-1.549-.142-3.15-.289-4.7-.289s-3.151.147-4.7.289c-1.6.146-3.248.3-4.9.3h-1.2l.13-1.195c.008-.071.777-7.167.777-9.48s-.77-9.409-.777-9.481l-.145-1.334,1.334.145c.071.009,7.162.778,9.48.778s9.409-.769,9.481-.778l1.2-.13v1.2c0,1.653-.152,3.309-.3,4.911-.142,1.552-.289,3.158-.289,4.713s.147,3.142.289,4.686c.147,1.593.3,3.239.3,4.884Zm-10.676-2.745c1.649,0,3.3.153,4.9.3,1.185.109,2.4.22,3.6.267-.047-1.195-.158-2.406-.267-3.585-.147-1.592-.3-3.239-.3-4.884s.151-3.309.3-4.911c.106-1.155.215-2.341.263-3.513-2.175.225-6.645.662-8.493.662-1.818,0-6.173-.423-8.385-.652.227,2.214.651,6.571.651,8.387,0,1.844-.437,6.316-.662,8.492,1.168-.049,2.348-.158,3.5-.263C587.432,3440.39,589.083,3440.238,590.732,3440.238Z" transform="translate(-568.032 -3409.419)" fill="#102b4e"/>
    <g id="Group_209" data-name="Group 209" transform="translate(18.366 7.845)">
      <path id="Path_591" data-name="Path 591" d="M596.5,3430.879a1.078,1.078,0,0,1-.761-1.842,8.05,8.05,0,0,0,0-12.438,1.078,1.078,0,1,1,1.522-1.527,10.184,10.184,0,0,1,0,15.493A1.074,1.074,0,0,1,596.5,3430.879Z" transform="translate(-592.166 -3414.758)" fill="#102b4e"/>
      <path id="Path_592" data-name="Path 592" d="M594.571,3430.879a1.074,1.074,0,0,1-.761-.314,10.183,10.183,0,0,1,0-15.493,1.078,1.078,0,1,1,1.522,1.527,8.049,8.049,0,0,0,0,12.438,1.078,1.078,0,0,1-.761,1.842Z" transform="translate(-590.237 -3414.758)" fill="#102b4e"/>
    </g>
    <g id="Group_210" data-name="Group 210" transform="translate(18.366 21.81)">
      <path id="Path_593" data-name="Path 593" d="M596.5,3453.117a1.078,1.078,0,0,1-.761-1.842,8.05,8.05,0,0,0,0-12.437,1.078,1.078,0,0,1,1.522-1.528,10.184,10.184,0,0,1,0,15.493A1.074,1.074,0,0,1,596.5,3453.117Z" transform="translate(-592.166 -3436.996)" fill="#102b4e"/>
      <path id="Path_594" data-name="Path 594" d="M594.571,3453.117a1.074,1.074,0,0,1-.761-.314,10.184,10.184,0,0,1,0-15.493,1.078,1.078,0,0,1,1.522,1.528,8.049,8.049,0,0,0,0,12.437,1.078,1.078,0,0,1-.761,1.842Z" transform="translate(-590.237 -3436.996)" fill="#102b4e"/>
    </g>
    <g id="Group_211" data-name="Group 211" transform="translate(7.656 18.554)">
      <path id="Path_595" data-name="Path 595" d="M588.226,3437.223a1.07,1.07,0,0,1-.764-.317,8.05,8.05,0,0,0-12.437,0,1.078,1.078,0,0,1-1.528-1.522,10.184,10.184,0,0,1,15.493,0,1.078,1.078,0,0,1-.764,1.839Z" transform="translate(-573.184 -3431.812)" fill="#102b4e"/>
      <path id="Path_596" data-name="Path 596" d="M581.244,3442.408a10.972,10.972,0,0,1-7.746-3.573,1.078,1.078,0,1,1,1.528-1.522,8.048,8.048,0,0,0,12.437,0,1.078,1.078,0,1,1,1.527,1.522A10.973,10.973,0,0,1,581.244,3442.408Z" transform="translate(-573.184 -3433.741)" fill="#102b4e"/>
    </g>
    <g id="Group_212" data-name="Group 212" transform="translate(21.622 18.554)">
      <path id="Path_597" data-name="Path 597" d="M596.5,3437.223a1.078,1.078,0,0,1-.764-1.839,10.184,10.184,0,0,1,15.493,0,1.078,1.078,0,0,1-1.528,1.522,8.05,8.05,0,0,0-12.437,0A1.071,1.071,0,0,1,596.5,3437.223Z" transform="translate(-595.422 -3431.812)" fill="#102b4e"/>
      <path id="Path_598" data-name="Path 598" d="M603.482,3442.408a10.973,10.973,0,0,1-7.746-3.573,1.078,1.078,0,1,1,1.527-1.522,8.049,8.049,0,0,0,12.438,0,1.078,1.078,0,1,1,1.528,1.522A10.974,10.974,0,0,1,603.482,3442.408Z" transform="translate(-595.422 -3433.741)" fill="#102b4e"/>
    </g>
    <path id="Path_599" data-name="Path 599" d="M564.315,3439.755a3.327,3.327,0,0,1-3.324-3.323,3.114,3.114,0,0,1,3.324-3.324,3.324,3.324,0,0,1,0,6.647Zm0-4.491c-.578,0-1.168.138-1.168,1.168a1.168,1.168,0,1,0,1.168-1.168Z" transform="translate(-560.991 -3413.74)" fill="#102b4e"/>
    <path id="Path_600" data-name="Path 600" d="M586.235,3456.783a18.4,18.4,0,0,1-18.383-18.383h2.156a16.246,16.246,0,0,0,16.227,16.228Z" transform="translate(-563.544 -3415.708)" fill="#102b4e"/>
    <path id="Path_601" data-name="Path 601" d="M566.284,3441.914v-2.745a.874.874,0,0,0,.873-.874H569.9A3.622,3.622,0,0,1,566.284,3441.914Z" transform="translate(-562.96 -3415.669)" fill="#fff"/>
    <path id="Path_602" data-name="Path 602" d="M567.227,3435.744a16.132,16.132,0,0,1,.563-4.624l2.811.863a13.234,13.234,0,0,0-.435,3.659Z" transform="translate(-563.309 -3413)" fill="#fff"/>
    <path id="Path_603" data-name="Path 603" d="M586.235,3445.894v-2.156a16.227,16.227,0,1,0-16.227-16.227h-2.156a18.383,18.383,0,1,1,18.383,18.383Z" transform="translate(-563.544 -3404.818)" fill="#102b4e"/>
    <path id="Path_604" data-name="Path 604" d="M565.993,3441.724v-2.155a1.169,1.169,0,0,0,1.167-1.168h2.156A3.327,3.327,0,0,1,565.993,3441.724Z" transform="translate(-562.852 -3415.708)" fill="#102b4e"/>
    <path id="Path_605" data-name="Path 605" d="M595.169,3408.914a3.324,3.324,0,1,1,0-6.648,3.115,3.115,0,0,1,3.324,3.324A3.327,3.327,0,0,1,595.169,3408.914Zm0-4.492a1.168,1.168,0,1,0,1.168,1.168C596.337,3405.012,596.2,3404.422,595.169,3404.422Z" transform="translate(-572.469 -3402.266)" fill="#102b4e"/>
    <path id="Path_606" data-name="Path 606" d="M595.1,3411.177a3.621,3.621,0,0,1-3.617-3.618h2.744a.875.875,0,0,0,.874.874Z" transform="translate(-572.334 -3404.235)" fill="#fff"/>
    <path id="Path_607" data-name="Path 607" d="M600.817,3411.875a13.288,13.288,0,0,0-3.659-.435l-.1-2.939a16.138,16.138,0,0,1,4.624.564Z" transform="translate(-574.408 -3404.584)" fill="#fff"/>
    <path id="Path_608" data-name="Path 608" d="M597.138,3445.894v-2.156a16.227,16.227,0,0,0,0-32.454v-2.156a18.383,18.383,0,1,1,0,36.767Z" transform="translate(-574.439 -3404.818)" fill="#102b4e"/>
    <path id="Path_609" data-name="Path 609" d="M626.829,3439.685a2.54,2.54,0,1,1,2.54-2.54A2.542,2.542,0,0,1,626.829,3439.685Zm0-4.491a1.952,1.952,0,1,0,1.953,1.952A1.954,1.954,0,0,0,626.829,3435.194Z" transform="translate(-584.54 -3414.296)" fill="#f40b53"/>
    <path id="Path_610" data-name="Path 610" d="M595.537,3470.978a2.54,2.54,0,1,1,2.54-2.539A2.542,2.542,0,0,1,595.537,3470.978Zm0-4.491a1.952,1.952,0,1,0,1.951,1.952A1.954,1.954,0,0,0,595.537,3466.488Z" transform="translate(-572.898 -3425.939)" fill="#f40b53"/>
    <g id="Group_213" data-name="Group 213" transform="translate(20.549 20.738)">
      <rect id="Rectangle_67" data-name="Rectangle 67" width="2.649" height="2.649" transform="translate(2.15 0.277) rotate(45)" fill="#fff"/>
      <path id="Path_611" data-name="Path 611" d="M595.864,3439.59l-2.15-2.151,2.15-2.151,2.15,2.151Zm-1.6-2.151,1.6,1.6,1.6-1.6-1.6-1.6Z" transform="translate(-593.714 -3435.289)" fill="#102b4e"/>
    </g>
    <path id="Path_612" data-name="Path 612" d="M595.169,3410.592a3.328,3.328,0,0,1-3.324-3.324H594a1.169,1.169,0,0,0,1.167,1.168Z" transform="translate(-572.469 -3404.126)" fill="#102b4e"/>
    <path id="Path_613" data-name="Path 613" d="M595.169,3470.611a3.115,3.115,0,0,1-3.324-3.324,3.324,3.324,0,1,1,3.324,3.324Zm0-4.492a1.168,1.168,0,0,0-1.167,1.168c0,.577.139,1.167,1.167,1.167a1.168,1.168,0,1,0,0-2.335Z" transform="translate(-572.469 -3425.219)" fill="#102b4e"/>
    <path id="Path_614" data-name="Path 614" d="M600.652,3467.113h-2.744a.875.875,0,0,0-.873-.874v-2.744A3.622,3.622,0,0,1,600.652,3467.113Z" transform="translate(-574.4 -3425.044)" fill="#fff"/>
    <path id="Path_615" data-name="Path 615" d="M594.144,3466.316a15.735,15.735,0,0,1-4.287-.568l.864-2.81a13.124,13.124,0,0,0,3.657.435l.1,2.938C594.46,3466.312,594.34,3466.316,594.144,3466.316Z" transform="translate(-571.73 -3424.837)" fill="#fff"/>
    <path id="Path_616" data-name="Path 616" d="M593.436,3465.841a18.333,18.333,0,0,1-6.249-1.09l.733-2.027a16.188,16.188,0,0,0,5.516.96Z" transform="translate(-570.737 -3424.758)" fill="#102b4e"/>
    <path id="Path_617" data-name="Path 617" d="M600.462,3467.577h-2.156a1.168,1.168,0,0,0-1.168-1.167v-2.156A3.327,3.327,0,0,1,600.462,3467.577Z" transform="translate(-574.439 -3425.326)" fill="#102b4e"/>
    <path id="Path_618" data-name="Path 618" d="M625.829,3440.436a3.324,3.324,0,1,1,3.324-3.324A3.115,3.115,0,0,1,625.829,3440.436Zm0-4.492a1.168,1.168,0,0,0,0,2.337c.577,0,1.167-.139,1.167-1.168A1.169,1.169,0,0,0,625.829,3435.944Z" transform="translate(-583.876 -3413.993)" fill="#102b4e"/>
    <path id="Path_619" data-name="Path 619" d="M624.781,3437.042h-2.744a3.621,3.621,0,0,1,3.618-3.617v2.743A.875.875,0,0,0,624.781,3437.042Z" transform="translate(-583.702 -3413.858)" fill="#fff"/>
    <path id="Path_620" data-name="Path 620" d="M624.29,3443.623l-2.811-.863a13.249,13.249,0,0,0,.436-3.66l2.938-.1A16.117,16.117,0,0,1,624.29,3443.623Z" transform="translate(-583.494 -3415.931)" fill="#fff"/>
    <path id="Path_621" data-name="Path 621" d="M623.293,3445.331l-2.028-.733a16.178,16.178,0,0,0,.961-5.516h2.156A18.338,18.338,0,0,1,623.293,3445.331Z" transform="translate(-583.414 -3415.962)" fill="#102b4e"/>
    <path id="Path_622" data-name="Path 622" d="M624.952,3437.112H622.8a3.327,3.327,0,0,1,3.324-3.323v2.155A1.169,1.169,0,0,0,624.952,3437.112Z" transform="translate(-583.984 -3413.993)" fill="#102b4e"/>
    <path id="Path_623" data-name="Path 623" d="M597.126,3454.535" transform="translate(-574.434 -3421.711)" fill="none" stroke="#fff" stroke-linecap="round" stroke-miterlimit="10" stroke-width="2"/>
    <g id="Group_214" data-name="Group 214" transform="translate(16.974 12.209)">
      <path id="Path_624" data-name="Path 624" d="M593.738,3426.628c-1,0-2.927-.132-5.718-.394l.036-.39c2.74.255,4.7.391,5.682.391Z" transform="translate(-588.02 -3423.247)" fill="#fff"/>
      <path id="Path_625" data-name="Path 625" d="M593.738,3422.491c-1,0-2.927-.132-5.718-.392l.036-.391c2.74.257,4.7.392,5.682.392Z" transform="translate(-588.02 -3421.708)" fill="#fff"/>
    </g>
    <g id="Group_215" data-name="Group 215" transform="translate(16.184 30.447)">
      <path id="Path_626" data-name="Path 626" d="M586.8,3451.533l-.036-.391c2.791-.26,4.715-.394,5.718-.394v.393C591.5,3451.142,589.539,3451.277,586.8,3451.533Z" transform="translate(-586.762 -3450.749)" fill="#fff"/>
      <path id="Path_627" data-name="Path 627" d="M586.8,3455.668l-.036-.391c2.791-.261,4.715-.394,5.718-.394v.393C591.5,3455.277,589.539,3455.413,586.8,3455.668Z" transform="translate(-586.762 -3452.287)" fill="#fff"/>
    </g>
    <g id="Group_216" data-name="Group 216" transform="translate(30.214 17.272)">
      <path id="Path_628" data-name="Path 628" d="M609.5,3435.486h-.392c0-1,.132-2.927.392-5.718l.391.036C609.632,3432.544,609.5,3434.509,609.5,3435.486Z" transform="translate(-609.105 -3429.768)" fill="#fff"/>
      <path id="Path_629" data-name="Path 629" d="M613.632,3435.486h-.392c0-1,.133-2.927.393-5.718l.39.036C613.768,3432.544,613.632,3434.509,613.632,3435.486Z" transform="translate(-610.643 -3429.768)" fill="#fff"/>
    </g>
    <g id="Group_217" data-name="Group 217" transform="translate(12 22.889)">
      <path id="Path_630" data-name="Path 630" d="M584.626,3444.431l-.391-.036c.256-2.739.391-4.7.391-5.682h.392C585.018,3439.717,584.886,3441.64,584.626,3444.431Z" transform="translate(-581.638 -3438.713)" fill="#fff"/>
      <path id="Path_631" data-name="Path 631" d="M580.49,3444.431l-.39-.036c.256-2.739.391-4.7.391-5.682h.392C580.883,3439.717,580.751,3441.64,580.49,3444.431Z" transform="translate(-580.1 -3438.713)" fill="#fff"/>
    </g>
  </g>
</svg>
