<svg id="facebook" xmlns="http://www.w3.org/2000/svg" viewBox="0 0 16.534 16.479">
  <path id="Path_637" data-name="Path 637" d="M1279.065,3989.462h.161c.233.029.469.03.7.054a6.428,6.428,0,0,1,1.818.509,8.119,8.119,0,0,1,2.727,1.854,8.221,8.221,0,0,1,2.238,4.278,6.57,6.57,0,0,1,.074,1.086,14.511,14.511,0,0,1-.049,1.853,6.218,6.218,0,0,1-.357,1.419,8.147,8.147,0,0,1-1.488,2.584,8.29,8.29,0,0,1-4.879,2.827c-.23.041-.28,0-.282-.239-.007-.57,0-1.139,0-1.709q0-1.79,0-3.579c0-.36.011-.37.372-.371.436,0,.871,0,1.306,0,.22,0,.26-.033.3-.253q.138-.867.27-1.735c.028-.186-.014-.238-.2-.239-.559,0-1.118,0-1.677,0-.351,0-.364-.015-.365-.363,0-.424-.005-.849,0-1.273a1.548,1.548,0,0,1,.135-.641,1.177,1.177,0,0,1,.95-.684,6.047,6.047,0,0,1,.869-.034c.08,0,.161,0,.242,0,.115,0,.184-.059.185-.177.007-.511.006-1.021,0-1.532a.168.168,0,0,0-.142-.188,6.278,6.278,0,0,0-2.684.006,2.584,2.584,0,0,0-1.88,2.032,3.851,3.851,0,0,0-.1.927c.005.542,0,1.085,0,1.628,0,.269-.03.3-.3.3-.505,0-1.011,0-1.516,0-.247,0-.281.034-.282.279,0,.559,0,1.117,0,1.676,0,.236.038.273.272.274.51,0,1.021,0,1.531,0,.259,0,.29.032.291.289q0,2.668,0,5.337a1.046,1.046,0,0,1-.005.112c-.018.144-.072.189-.216.169a5.968,5.968,0,0,1-.833-.188,8.2,8.2,0,0,1-3.3-1.821,8.341,8.341,0,0,1-2.346-3.549,5.793,5.793,0,0,1-.328-1.84.11.11,0,0,0-.016-.077v-.194a.258.258,0,0,0,0-.193v-.71a.258.258,0,0,0,0-.193v-.194a3.391,3.391,0,0,0,.041-.492,6.138,6.138,0,0,1,.536-2.027,7.9,7.9,0,0,1,1.312-2.13,8.262,8.262,0,0,1,3.436-2.42,6.027,6.027,0,0,1,1.505-.39c.239-.023.479-.024.717-.056h.161a.25.25,0,0,0,.194,0h.709A.25.25,0,0,0,1279.065,3989.462Z" transform="translate(-1270.26 -3989.462)" />
</svg>
