<svg id="faq"  data-name="downloaquestiond (1)" xmlns="http://www.w3.org/2000/svg" width="26" height="26.276" viewBox="0 0 26 26.276">
  <path id="Path_1328" data-name="Path 1328" d="M13.034,0A13.009,13.009,0,0,1,26,13.034a13.546,13.546,0,0,1-2.483,7.724l.9,5.517C22.9,26.276,13.034,26,13.034,26a13,13,0,1,1,0-26Zm0,1.724a11.276,11.276,0,1,0,0,22.552l9.31.207-.69-4.207A11.312,11.312,0,0,0,13.034,1.724Z" fill="#102b4e"/>
  <path id="Path_1329" data-name="Path 1329" d="M131,93.241A4.071,4.071,0,0,1,135,90a4.136,4.136,0,0,1,4.069,4.138,4.211,4.211,0,0,1-2.345,3.793,1.509,1.509,0,0,0-.9,1.379v.276H134.1V99.31a3.189,3.189,0,0,1,1.862-2.966,2.4,2.4,0,0,0,1.31-2.207A2.328,2.328,0,0,0,135,91.724a2.387,2.387,0,0,0-2.345,2.138Z" transform="translate(-121.966 -83.793)" fill="#102b4e"/>
  <path id="Path_1330" data-name="Path 1330" d="M173.172,243a1.1,1.1,0,0,1,0,2.207,1.105,1.105,0,1,1,0-2.207Z" transform="translate(-160.138 -226.241)" fill="#102b4e" fill-rule="evenodd"/>
</svg>
