<svg id="georgia" xmlns="http://www.w3.org/2000/svg" width="89.246" height="46.577" viewBox="0 0 89.246 46.577">
  <path id="polyF1S80P1" d="M385.644,3431.3l-.907,2.724h-1.816v2.723l6.355,5.448-1.816,3.631-9.079-1.816-1.816-2.724-5.447-1.815-3.631,3.631h-2.724l.908.908-4.54.907-4.539-.907-4.539,1.816-8.171-.908-.908-1.816h.908l-5.447-5.447h-2.724l-.908,2.723-2.724-.907-6.355.907-3.632-1.815,3.632-5.447-3.632-14.525-4.539-2.724-3.632-4.539-3.631-.907-7.263-5.447,1.816-2.724,7.263.908,11.8,5.447,16.342,1.816.907,1.816,10.894,5.447-.908,2.724h3.632l6.355-2.724h1.816l.908,1.815,1.816-2.723,4.539,1.815,1.816,2.724,2.724-.907,1.815.907-.908,5.447,3.632,2.723Z" transform="translate(-301.53 -3400.744)" fill="none" stroke="#102b4e" stroke-linejoin="round" stroke-width="3"/>
</svg>
