<svg id="globe" xmlns="http://www.w3.org/2000/svg" width="43.577" height="43.577" viewBox="0 0 43.577 43.577">
  <path id="Path_589" data-name="Path 589" d="M128.308,3401.091A21.788,21.788,0,1,0,150.1,3422.88,21.813,21.813,0,0,0,128.308,3401.091Zm-19.745,21.788a19.634,19.634,0,0,1,3.462-11.156l1.139,1.127a.673.673,0,0,1,.2.427l.2,2.529a.676.676,0,0,0,.165.391l5.153,5.883a.657.657,0,0,0,.2.156l4.54,2.328.032.015,1.332.595a.675.675,0,0,1,.332.322l.408.837a.661.661,0,0,0,.267.288l-.465,1.745a.809.809,0,0,0,.056.565l1.1,2.231a.824.824,0,0,0,.307.337l.912.552a.81.81,0,0,1,.381.809l-1.2,8.29a.811.811,0,0,0,.081.483l.5.982A19.768,19.768,0,0,1,108.563,3422.88Zm20.876,19.713-.3-.41a.808.808,0,0,1-.052-.874l1.343-2.388a.812.812,0,0,1,.323-.318l1-.536a.816.816,0,0,0,.223-.175l2.5-2.816a.8.8,0,0,1,.388-.242l1.218-.337a.809.809,0,0,0,.532-.472l1.759-4.253a.81.81,0,0,0-.481-1.073l-3.768-1.318a.815.815,0,0,1-.444-.378l-.316-.579a.809.809,0,0,0-.3-.309l-2.762-1.633a.816.816,0,0,0-.412-.113h-2.4a.809.809,0,0,0-.7.411l-.179.316a.771.771,0,0,0-.136-.029.673.673,0,0,1-.463-.252L124,3422.274a.678.678,0,0,0-.681-.24l-.545.127a.678.678,0,0,1-.518-.091l-.841-.543a.677.677,0,0,1-.293-.717l.207-.918a.675.675,0,0,1,.659-.527h3.091a.677.677,0,0,0,.571-.314l2.064-3.261a.676.676,0,0,1,.329-.27l1.84-.7a.685.685,0,0,0,.309-.24l1.67-2.354a.676.676,0,0,0-.042-.836L130,3409.3a.675.675,0,0,0-.291-.2l-2.459-.843a.675.675,0,0,0-.877.484l-.448,1.9a.676.676,0,0,1-.944.456l-2.116-.992a.673.673,0,0,1-.287-.255l-.438-.705a.675.675,0,0,1,.149-.882l2.723-2.2a.675.675,0,0,0,.246-.606l-.09-.74.776-.112a.637.637,0,0,1,.478.123l.7.534a.638.638,0,0,1,.253.509v.317a.64.64,0,0,0,.3.541l1.36.854a.639.639,0,0,0,.964-.4l.177-.805a.637.637,0,0,0-.146-.561l-2.282-2.573c.185-.006.37-.008.556-.008a19.915,19.915,0,0,1,2.406.146l1.457.892a.754.754,0,0,1,.322.4c.162.486.5,1.493.532,1.635.04.16,1.025,1.7,1.336,2.19a.743.743,0,0,0,.241.235.755.755,0,0,0,1.073-.315l.728-1.5a.758.758,0,0,1,.34-.346l1.412-.71a19.885,19.885,0,0,1,8,8.673l-.792.413a.5.5,0,0,0-.27.446v2.113a.506.506,0,0,1-.064.245l-2.16,3.87a.508.508,0,0,0-.064.246v2.163a.5.5,0,0,0,.19.394l2.278,1.816a.508.508,0,0,0,.4.1l2.151-.372A19.781,19.781,0,0,1,129.439,3442.592Z" transform="translate(-106.519 -3401.091)" fill="#102b4e"/>
</svg>
