<svg id="instagram" xmlns="http://www.w3.org/2000/svg" width="16.535" height="16.534" viewBox="0 0 16.535 16.534">
  <g id="Group_221" data-name="Group 221" transform="translate(-1346.258 -3989.457)">
    <path id="Path_639" data-name="Path 639" d="M1354.525,4001.975a4.251,4.251,0,1,1,3.007-1.245A4.227,4.227,0,0,1,1354.525,4001.975Zm0-6.893a2.642,2.642,0,1,0,2.641,2.643A2.644,2.644,0,0,0,1354.525,3995.082Z" fill="#acb9bb"/>
    <path id="Path_640" data-name="Path 640" d="M1358.985,3994.6a1.207,1.207,0,1,1,1.206-1.207A1.208,1.208,0,0,1,1358.985,3994.6Z" fill="#acb9bb"/>
    <path id="Path_641" data-name="Path 641" d="M1358.529,4005.991h-8.008a4.263,4.263,0,0,1-4.263-4.263v-8.008a4.263,4.263,0,0,1,4.263-4.263h8.008a4.263,4.263,0,0,1,4.264,4.263v8.008a4.263,4.263,0,0,1-4.264,4.263Zm-8.008-14.925a2.656,2.656,0,0,0-2.653,2.654v8.008a2.657,2.657,0,0,0,2.653,2.653h8.008a2.656,2.656,0,0,0,2.654-2.653v-8.008a2.658,2.658,0,0,0-2.654-2.654Z" fill="#acb9bb"/>
  </g>
</svg>
