<svg id="legal-act" xmlns="http://www.w3.org/2000/svg" width="18" height="24.968" viewBox="0 0 18 24.968">
  <g id="Group_558" data-name="Group 558" transform="translate(-57 -21)">
    <path id="Path_700" data-name="Path 700" d="M57.581,21A.629.629,0,0,0,57,21.58V45.387a.6.6,0,0,0,.581.581H74.419A.6.6,0,0,0,75,45.387V26.806a.593.593,0,0,0-.172-.417L69.6,21.163A.588.588,0,0,0,69.194,21Zm.581,1.161H68.613v4.645a.6.6,0,0,0,.581.581h4.645V44.806H58.161Zm11.613.817,3.248,3.248H69.774Zm-9.29,7.893a.581.581,0,0,0,0,1.161h8.71a.581.581,0,1,0,0-1.161Zm0,4.645a.581.581,0,0,0,0,1.161H71.516a.581.581,0,1,0,0-1.161Zm0,4.645a.581.581,0,0,0,0,1.161H71.516a.581.581,0,1,0,0-1.161Z" transform="translate(0 0)"/>
  </g>
</svg>
