<svg id="link" xmlns="http://www.w3.org/2000/svg" viewBox="0 0 16 16">
  <path id="Path_1331" data-name="Path 1331" d="M17.889,978.774a3.741,3.741,0,1,1-5.29-5.29l2.939-2.939a3.746,3.746,0,0,1,5.29,0,.624.624,0,1,1-.882.882,2.475,2.475,0,0,0-3.527,0l-2.939,2.939a2.494,2.494,0,1,0,3.527,3.527L19.8,975.1a.623.623,0,1,1,.882.882Zm5.584-5.584a3.746,3.746,0,0,1-5.29,0,.623.623,0,1,1,.882-.882,2.475,2.475,0,0,0,3.527,0l2.939-2.939A2.494,2.494,0,1,0,22,965.842l-2.792,2.792a.623.623,0,1,1-.882-.882l2.792-2.792a3.741,3.741,0,1,1,5.29,5.29Z" transform="translate(-11.505 -963.867)"/>
</svg>
