<svg id="mail" xmlns="http://www.w3.org/2000/svg" width="24.551" height="16.878" viewBox="0 0 24.551 16.878">
  <path id="Path_648" data-name="Path 648" d="M1397.322,3906.118l0,0-.013-.011a1.008,1.008,0,0,0-.122-.09.333.333,0,0,0-.032-.017.814.814,0,0,0-.121-.06c-.022-.009-.045-.014-.067-.021a.887.887,0,0,0-.1-.028.853.853,0,0,0-.181-.019h-22.633a.9.9,0,0,0-.18.018c-.035.007-.066.018-.1.028s-.046.013-.069.022a1.116,1.116,0,0,0-.119.058c-.011.007-.024.012-.035.02a1.1,1.1,0,0,0-.118.087l-.016.013,0,0a.954.954,0,0,0-.32.71v14.96a.96.96,0,0,0,.959.959h22.633a.96.96,0,0,0,.959-.959v-14.96A.953.953,0,0,0,1397.322,3906.118Zm-8.807,7.279,8.654-6.875a.567.567,0,0,1,.09.307v14.96a.569.569,0,0,1-.074.278Zm8.169-7.144a.54.54,0,0,1,.158.025l.013,0-11.487,9.125-11.487-9.125.01,0a.538.538,0,0,1,.16-.026Zm-23.208.576a.576.576,0,0,1,.09-.307l8.6,6.831-8.648,8.649a.58.58,0,0,1-.041-.213Zm.575,15.536a.575.575,0,0,1-.514-.323l.241.241,8.69-8.69,2.78,2.209a.191.191,0,0,0,.239,0l2.725-2.165,8.686,8.686a.561.561,0,0,1-.214.042Z" transform="translate(-1373.092 -3905.87)" fill="#fff"/>
</svg>
