<svg id="mute" xmlns="http://www.w3.org/2000/svg" viewBox="0 0 29.41 29.412">
  <g id="Group_1614" data-name="Group 1614" transform="translate(-1859.001 -133)">
    <path id="Path_690" data-name="Path 690" d="M104.1,93.619,91.812,81.331,76.791,66.31A1.051,1.051,0,0,0,75.3,67.8l6.611,6.611H76.048A1.049,1.049,0,0,0,75,75.456v10.5a1.051,1.051,0,0,0,1.05,1.05h8.033L94.3,95.182a1.048,1.048,0,0,0,1.113.126A1.047,1.047,0,0,0,96,94.362V88.5l6.609,6.609a1.051,1.051,0,1,0,1.487-1.485ZM93.9,92.176l-8.8-7.037a1.059,1.059,0,0,0-.658-.229H77.1v-8.4h6.918L93.9,86.395Z" transform="translate(1784.004 67)" fill="#fff"/>
    <path id="Path_691" data-name="Path 691" d="M147.584,69.447V81.229l2.243,2.243V67.111A1.123,1.123,0,0,0,148,66.236l-8.563,6.852,1.6,1.6Z" transform="translate(1730.463 67.012)" fill="#fff"/>
  </g>
</svg>
