<svg id="print" xmlns="http://www.w3.org/2000/svg" width="19.2" height="20.677" viewBox="0 0 19.2 20.677">
  <path id="Path_695" data-name="Path 695" d="M443.868,2144.806a.738.738,0,0,1,.738-.738h8.862a.738.738,0,0,1,.738.738v5.169H457.9a.739.739,0,0,1,.738.739v7.384a.739.739,0,0,1-.738.739h-2.954v5.169a.739.739,0,0,1-.739.739H443.868a.738.738,0,0,1-.738-.739v-5.169h-2.954a.739.739,0,0,1-.739-.739v-7.384a.739.739,0,0,1,.739-.739h3.692Zm8.862.739v4.43h-7.385v-4.43Zm-5.908,13.292h4.431v-1.477h-4.431Zm4.431,2.954h-4.431v-1.477h4.431Zm-6.647,1.477v-7.385h8.862v7.385Z" transform="translate(-439.437 -2144.068)" fill="#102b4e" fill-rule="evenodd"/>
</svg>
