<svg id="socialissues" xmlns="http://www.w3.org/2000/svg" viewBox="0 0 43.577 43.577">
  <path id="Path_632" data-name="Path 632" d="M516.308,3642.94a2.107,2.107,0,0,0-.757.151v-2.167a2.569,2.569,0,0,0-1.409-2.344,27.051,27.051,0,0,0-8.888-6.3l-.158-.07a19.456,19.456,0,0,0-4.265-1.465,28.948,28.948,0,0,0-4.907-.415H490.2a2.442,2.442,0,0,0-2.548,2.314,2.093,2.093,0,0,0,.151.756H485.64a2.523,2.523,0,0,0-2.427,1.647,23.153,23.153,0,0,0-6,8.149l-.29.66a19.488,19.488,0,0,0-1.465,4.265,28.988,28.988,0,0,0-.413,4.907v5.72a2.441,2.441,0,0,0,2.313,2.547,2.091,2.091,0,0,0,.758-.151v2.167a2.487,2.487,0,0,0,1.922,2.5,22.162,22.162,0,0,0,7.615,5.8c.309.142.616.279.918.414a19.523,19.523,0,0,0,4.266,1.465,28.953,28.953,0,0,0,4.906.414h5.72a2.442,2.442,0,0,0,2.547-2.314,2.1,2.1,0,0,0-.151-.757h2.167a2.582,2.582,0,0,0,2.239-1.232l.369-.363a28.514,28.514,0,0,0,6.11-8.859,19.5,19.5,0,0,0,1.465-4.265,28.979,28.979,0,0,0,.414-4.908v-5.719A2.442,2.442,0,0,0,516.308,3642.94Zm-33.252-4.915h9.871a.778.778,0,1,0,0-1.556H485.64a.785.785,0,1,1,0-1.515h7.271a.778.778,0,0,0,0-1.557H490.2a.785.785,0,1,1,0-1.514h5.72a27.456,27.456,0,0,1,4.643.391,18.186,18.186,0,0,1,3.9,1.354l.162.072a25.671,25.671,0,0,1,4.362,2.458,2.493,2.493,0,0,0-.955,1.2,2.11,2.11,0,0,0-.936-.223,2.442,2.442,0,0,0-2.313,2.548v1.8a3.022,3.022,0,0,0-2.7.564l-3.452,2.791a6.745,6.745,0,0,1-3.56.81h-2.817a.411.411,0,0,1-.436-.366v-.459c0-.636.825-.654.919-.654h.763a.1.1,0,0,0,.017,0H495.3a.778.778,0,1,0,0-1.557H484.4a.785.785,0,1,1,0-1.514h8.542a.778.778,0,0,0,0-1.556h-9.887a.785.785,0,1,1,0-1.515Zm19.753,16.746,2.882,3.583a1.521,1.521,0,0,1,.124,1.713h-2.531a2.175,2.175,0,0,0,.111-.661v-.452a1.959,1.959,0,0,0-1.985-1.93h-2.825a8.275,8.275,0,0,0-4.4,1.063l-3.585,2.891a1.521,1.521,0,0,1-1.715.117v-2.524a2.171,2.171,0,0,0,.661.112h.452a1.964,1.964,0,0,0,1.93-1.993v-2.816a8.329,8.329,0,0,0-1.061-4.41l-2.89-3.577a1.531,1.531,0,0,1-.117-1.721h2.521a2.178,2.178,0,0,0-.111.658v.459a1.96,1.96,0,0,0,1.992,1.922h2.817a8.167,8.167,0,0,0,4.413-1.064l3.574-2.88a1.531,1.531,0,0,1,1.721-.124v2.528a2.18,2.18,0,0,0-.658-.11h-.459a1.956,1.956,0,0,0-1.922,1.984v2.825A8.224,8.224,0,0,0,502.809,3654.771Zm-18.553,1.236v9.888a.785.785,0,1,1-1.514,0v-9.872a.778.778,0,0,0-1.556,0v7.286a.785.785,0,1,1-1.514,0v-7.27a.778.778,0,1,0-1.556,0v2.708a.785.785,0,1,1-1.514,0v-5.72a27.457,27.457,0,0,1,.391-4.643,18.215,18.215,0,0,1,1.355-3.9l.292-.666a21.316,21.316,0,0,1,2.22-3.883,2.488,2.488,0,0,0,1.215.982,2.113,2.113,0,0,0-.222.936,2.442,2.442,0,0,0,2.548,2.313h1.8a3.013,3.013,0,0,0,.559,2.7l2.8,3.451a6.885,6.885,0,0,1,.811,3.561v2.816a.409.409,0,0,1-.373.436h-.452c-.519,0-.659-.569-.661-.911v-2.568a.778.778,0,1,0-1.556,0v10.9a.785.785,0,1,1-1.514,0v-8.542a.778.778,0,0,0-1.556,0Zm26.354,10.2h-9.871a.778.778,0,0,0,0,1.557h7.286a.911.911,0,0,1,.992.757c0,.41-.454.756-.992.756h-7.271a.778.778,0,0,0,0,1.557h2.708a.785.785,0,1,1,0,1.514h-5.72a27.416,27.416,0,0,1-4.642-.391,18.207,18.207,0,0,1-3.9-1.355q-.445-.2-.9-.4a20.155,20.155,0,0,1-3.6-2.138,2.494,2.494,0,0,0,.931-1.186,2.117,2.117,0,0,0,.937.224,2.442,2.442,0,0,0,2.313-2.548v-1.807a3.2,3.2,0,0,0,.8.114,3,3,0,0,0,1.891-.666l3.46-2.8a6.831,6.831,0,0,1,3.552-.811h2.825a.4.4,0,0,1,.428.374v.452c0,.628-.782.66-.906.661h-2.569a.778.778,0,1,0,0,1.556h10.9a.785.785,0,1,1,0,1.515h-8.542a.778.778,0,0,0,0,1.556h9.887a.785.785,0,1,1,0,1.514Zm6.455-15a27.467,27.467,0,0,1-.391,4.644,18.459,18.459,0,0,1-1.384,3.964,26.929,26.929,0,0,1-2.5,4.458,2.5,2.5,0,0,0-1.2-.956,2.1,2.1,0,0,0,.223-.936,2.442,2.442,0,0,0-2.548-2.313H507.46a3.033,3.033,0,0,0-.557-2.69l-2.792-3.461a6.69,6.69,0,0,1-.81-3.551v-2.825a.4.4,0,0,1,.366-.428h.459c.636,0,.654.824.654.918v.763a.165.165,0,0,0,0,.018v1.777a.778.778,0,1,0,1.556,0v-10.9a.785.785,0,1,1,1.514,0v8.542a.778.778,0,0,0,1.556,0v-9.887a.785.785,0,1,1,1.514,0v9.871a.778.778,0,1,0,1.556,0v-7.286a.785.785,0,1,1,1.514,0v7.27a.778.778,0,1,0,1.556,0v-2.707a.785.785,0,1,1,1.514,0Z" transform="translate(-475.044 -3630.328)" fill="#102b4e"/>
</svg>
