<svg id="twitter" xmlns="http://www.w3.org/2000/svg" width="16.534" height="13.455" viewBox="0 0 16.534 13.455">
  <path id="Path_638" data-name="Path 638" d="M1326.132,3992.563a6.855,6.855,0,0,1-1.948.536,3.406,3.406,0,0,0,1.493-1.878,6.752,6.752,0,0,1-2.155.824,3.391,3.391,0,0,0-5.869,2.319,3.31,3.31,0,0,0,.088.775,9.616,9.616,0,0,1-6.994-3.55,3.4,3.4,0,0,0,1.055,4.534,3.309,3.309,0,0,1-1.542-.424v.042a3.4,3.4,0,0,0,2.722,3.329,3.417,3.417,0,0,1-.893.119,3.209,3.209,0,0,1-.638-.063,3.4,3.4,0,0,0,3.171,2.358,6.8,6.8,0,0,1-4.215,1.454,6.985,6.985,0,0,1-.809-.049,9.479,9.479,0,0,0,5.192,1.535,9.594,9.594,0,0,0,9.66-9.664c0-.147,0-.294-.01-.438A6.9,6.9,0,0,0,1326.132,3992.563Z" transform="translate(-1309.598 -3990.969)" fill="#acb9bb"/>
</svg>
