<svg id="womensrights" xmlns="http://www.w3.org/2000/svg" width="46.577" height="46.577" viewBox="0 0 46.577 46.577">
  <g id="Group_437" data-name="Group 437" transform="translate(1.5 1.5)">
    <g id="Group_417" data-name="Group 417" transform="translate(0 0)">
      <g id="Element" transform="translate(6.294 8.652)">
        <path id="Path_633" data-name="Path 633" d="M250.712,3661.717c-.763-.781-1.8-2.334-1.435-2.325.243.006.5.27.671.491.064.082.178.017.165-.1-.658-5.761-3.537-6.085-3.933-6.1a.06.06,0,0,1-.052-.059c-.1-.759-.522-.771-.671-.75a.058.058,0,0,1-.06-.056,32.168,32.168,0,0,0-.723-3.394c-.67-2.7-1.744-3.767-3.277-5.493s-2.89-1.465-4.2-1.364a6.035,6.035,0,0,0-3.582,1.467c-.451.656-1.746,1.41-2.049,2.207a1.579,1.579,0,0,0-.01,1.191.446.446,0,0,1,.011.312,5.194,5.194,0,0,0,.355,4.583,2.766,2.766,0,0,1,.148,1.944,8.24,8.24,0,0,1-.636,1.622c-.215.516.238.714.651.758.286.03.674.171.738.395a1,1,0,0,1-.18.576.259.259,0,0,0,.036.3,1.642,1.642,0,0,0,.379.253.088.088,0,0,1,.024.125.739.739,0,0,0-.13.434.265.265,0,0,0,.149.253,1.186,1.186,0,0,1,.676,1.091c.114,1.184,1.252.593,1.252.593,1.506-.744,1.657-.824,2.1-.7.276.078.879,1.091,1.293,1.838a1.952,1.952,0,0,1,.13,1.58,1.307,1.307,0,0,1-.2.378c-.55.679-5.022,4.011-5.719,5.932l-.232,1.4s1.3,1.835,1.364,6.576a16.135,16.135,0,0,0,11.363-2.977,3.232,3.232,0,0,0,1.214-1.725c.707-2.251,2.016-7.392.65-11.139a1.634,1.634,0,0,0-.437-.661c-.58-.519-3.048-2.145-4.05-4.429a.517.517,0,0,1,.2-.664,8.288,8.288,0,0,0,1.432-1,.051.051,0,0,1,.081.026c.267.616.629.542.8.463.04-.02.084.016.079.069a6.738,6.738,0,0,0,1.653,4.447,4.352,4.352,0,0,0,3.876,1.984A.209.209,0,0,0,250.712,3661.717Z" transform="translate(-219.162 -3642.495)" fill="#102b4e"/>
        <path id="Path_634" data-name="Path 634" d="M229.638,3681.88a.756.756,0,0,1,.02-1.294c.32-.183.7-.4,1.006-.584a4.5,4.5,0,0,1,.683-.329,1.725,1.725,0,0,0,.935-.754c.317-.644-.34-.732.305-1.339.113-.106-.08-.341-.08-.341-.113-.229-.028-.372.159-.559l.044-.045c.127-.127.153-.174.044-.317l-.217-.314a.562.562,0,0,1-.042-.627.773.773,0,0,0,.1-.667c-.182-.46-1.237-.4-1.359-1.177s.418-2.336-.486-3.774a7.789,7.789,0,0,0-7.175-3.595,6.924,6.924,0,0,0-6.632,7.53c.135,4.51,4.221,5.417,4.484,5.912.074.138.159.332.244.537a8.2,8.2,0,0,0-.291,7.245c.68,1.431,5.63,4.569,12.738,5.336-.111-6.475-2.264-8.981-2.264-8.981A19.35,19.35,0,0,0,229.638,3681.88Z" transform="translate(-216.939 -3657.59)" fill="#102b4e"/>
      </g>
      <circle id="Ellipse_12" data-name="Ellipse 12" cx="21.788" cy="21.788" r="21.788" transform="translate(0 0)" fill="none" stroke="#102b4e" stroke-miterlimit="10" stroke-width="3"/>
    </g>
  </g>
</svg>
