<svg id="youtube" xmlns="http://www.w3.org/2000/svg" width="20.583" height="15.44" viewBox="0 0 20.583 15.44">
  <path id="Path_642" data-name="Path 642" d="M1404.931,3993.748a3.125,3.125,0,0,0-2.975-3.264c-2.228-.1-4.5-.145-6.819-.145h-.724c-2.316,0-4.591.04-6.819.145a3.132,3.132,0,0,0-2.971,3.273c-.1,1.431-.145,2.862-.141,4.294s.04,2.862.137,4.3a3.136,3.136,0,0,0,2.971,3.277c2.34.108,4.74.156,7.181.152s4.837-.04,7.181-.152a3.137,3.137,0,0,0,2.975-3.277c.1-1.436.141-2.867.137-4.3S1405.028,3995.184,1404.931,3993.748ZM1392.805,4002v-7.9l5.83,3.949Z" transform="translate(-1384.482 -3990.339)" fill="#acb9bb"/>
</svg>
